<svg id="Layer_1" data-name="Layer 1" xmlns="http://www.w3.org/2000/svg" viewBox="0 0 1024 150"><defs><style>.cls-1{fill:none;}</style></defs><path class="cls-1" d="M92.19,88.65H59.64q1.94,9.75,11.49,9.75a13,13,0,0,0,6.53-1.47,7.86,7.86,0,0,0,3.59-4.23l10.3,3.77a16.29,16.29,0,0,1-7.41,8.41q-5.19,2.9-13,2.9-11.4,0-17.65-6.3T47.23,83.87q0-11.31,6.07-17.61T70.4,60q10.66,0,16.41,6.16t5.75,17.57A33.25,33.25,0,0,1,92.19,88.65ZM63,71.92q-2.72,2.67-3.45,7.9H81A13.31,13.31,0,0,0,77.48,72a9.82,9.82,0,0,0-7.17-2.71A10,10,0,0,0,63,71.92Zm87.39,24.82v10.12H99.91V97.29l35.4-41H100.65V46.17h48.64v9.56l-35.4,41ZM232,51.28q5.88,5.1,5.88,14.38,0,9-5.88,14.07t-16.46,5.06H202.8v22.07H190.11V46.17h25.47Q226.15,46.17,232,51.28Zm-9.75,21.33c1.84-1.57,2.76-3.91,2.76-7s-.92-5.45-2.76-7-4.72-2.29-8.64-2.29H202.8V75h10.85Q219.53,75,222.29,72.61Zm38.34,19.63c0,2.2.32,3.74,1,4.59s1.82,1.29,3.54,1.29a14.27,14.27,0,0,0,2.71-.23,19.27,19.27,0,0,0,2.71-.78l-1.1,8.73a11.91,11.91,0,0,1-3.86,1.43,22.51,22.51,0,0,1-4.69.51q-6.72,0-9.79-3.27T248,94.08V40.75h12.59Zm62.15,6.62-.92,7.63a13.12,13.12,0,0,1-6,1.29q-8.83,0-10.58-6.9a12.53,12.53,0,0,1-6.25,5.15,26.25,26.25,0,0,1-10,1.75q-6.71,0-10.48-3T274.79,96q0-11.22,17.93-14.53l11-2.12v-2.2a8.09,8.09,0,0,0-2.07-5.84,7.57,7.57,0,0,0-5.74-2.16A11.89,11.89,0,0,0,289,71a9.67,9.67,0,0,0-3.68,6l-10-4.23A15.22,15.22,0,0,1,282,63.37Q287.11,60,295.38,60q9.84,0,15.36,4.28t5.52,12.64V95.73a3.68,3.68,0,0,0,.82,2.67,3.52,3.52,0,0,0,2.58.82A11,11,0,0,0,322.78,98.86ZM300.4,97.25a6,6,0,0,0,3.35-5.38V87.09l-9.84,2.2a11.68,11.68,0,0,0-4.64,2,4.22,4.22,0,0,0-1.52,3.45,4.13,4.13,0,0,0,1.38,3.36A5.9,5.9,0,0,0,293,99.22,14.32,14.32,0,0,0,300.4,97.25ZM360.11,104a16.35,16.35,0,0,1-5.56,2.76,24.05,24.05,0,0,1-7,1q-15.36,0-15.36-13.89V70.26H323.8V60.88h8.36V50.31l12.6-3.49V60.88h14.89v9.38H344.76V91.87q0,6.34,6.34,6.34a10.57,10.57,0,0,0,7.08-2.57Zm22.16-43.12H396.8v9.38h-14v36.6H370.23V70.26h-8V60.88h8V55.37q0-7.54,4.69-11.54t12.68-4a22.54,22.54,0,0,1,5.57.64,11.27,11.27,0,0,1,4,1.75l-1.75,8.36a9.48,9.48,0,0,0-5.24-1.37q-7.9,0-7.91,7.08ZM442,66.31q6.21,6.34,6.21,17.56T442,101.43q-6.21,6.34-17.33,6.35t-17.33-6.35q-6.21-6.34-6.21-17.56t6.21-17.56Q413.54,60,424.66,60T442,66.31ZM416.52,73q-2.81,3.65-2.8,10.9t2.8,10.89q2.81,3.64,8.14,3.64c3.55,0,6.27-1.21,8.14-3.64s2.8-6.05,2.8-10.89-.93-8.47-2.8-10.9-4.59-3.63-8.14-3.63S418.39,70.55,416.52,73ZM490,61l-1.56,11a11.6,11.6,0,0,0-13.56,1.88q-3.27,3.27-3.27,9.15v23.82H459.05v-46H470l.82,9Q474.59,60,485.07,60A9.92,9.92,0,0,1,490,61Zm77.1,3.31q4.64,4.32,4.64,12.41v30.16h-12.6V79.18q0-4.79-2.11-7a7.57,7.57,0,0,0-5.79-2.26A9.29,9.29,0,0,0,544,73.11q-2.85,3.23-2.85,9v24.74h-12.6V79.18q0-4.79-2.11-7a7.68,7.68,0,0,0-5.88-2.26,9.45,9.45,0,0,0-7.13,3.18q-3,3.17-3,9.42v24.37H497.85v-46h11.31l.36,8.19a15.91,15.91,0,0,1,6.3-6.81,17.72,17.72,0,0,1,9-2.3,17.48,17.48,0,0,1,9.14,2.39,13.92,13.92,0,0,1,5.84,6.9,15.65,15.65,0,0,1,6.44-6.9A18.39,18.39,0,0,1,555.4,60,16.53,16.53,0,0,1,567.13,64.29Zm87.21,2q5.24,6.34,5.24,17.65t-5.24,17.52q-5.25,6.3-14.44,6.3a16.34,16.34,0,0,1-9.42-2.72,16.79,16.79,0,0,1-6-7.31l-.46,9.11H612.87V40.75h12.6V68.42a15.81,15.81,0,0,1,5.79-6.2A16.13,16.13,0,0,1,639.9,60Q649.1,60,654.34,66.31ZM644.13,94.44Q647,90.76,647,83.87T644.13,73.3a10.39,10.39,0,0,0-15.45-.46q-2.85,3.21-3.21,9v4c.24,3.93,1.31,6.94,3.21,9.06a10.44,10.44,0,0,0,15.45-.51Zm49.93,15.27q-3.4,9.38-7.87,13.14t-11.9,3.77q-7.45,0-11.68-3.58l3.13-8.92a7.64,7.64,0,0,0,3.26,2.25,14.23,14.23,0,0,0,4.46.6,8,8,0,0,0,4.6-1.2,8.91,8.91,0,0,0,2.94-4.32l1.65-4-5-12L663.53,60.88h14l8.64,27.59,2.48,9.19,2.76-9.74,8.46-27h12.78Zm65.74-2.85H747.11V46.17H759.8Zm55.71-40.55q5.25,6.34,5.25,17.65t-5.25,17.52q-5.24,6.3-14.43,6.3a16.4,16.4,0,0,1-9.43-2.72,16.83,16.83,0,0,1-6-7.31l-.46,9.11H774.05V40.75h12.59V68.42a15.9,15.9,0,0,1,5.8-6.2A16.13,16.13,0,0,1,801.08,60Q810.28,60,815.51,66.31Zm-10.2,28.13q2.85-3.68,2.85-10.57T805.31,73.3a10.39,10.39,0,0,0-15.45-.46q-2.85,3.21-3.22,9v4c.25,3.93,1.32,6.94,3.22,9.06a10.44,10.44,0,0,0,15.45-.51Zm69.14-5.79H841.9q1.94,9.75,11.49,9.75a13,13,0,0,0,6.53-1.47,7.86,7.86,0,0,0,3.59-4.23l10.3,3.77a16.32,16.32,0,0,1-7.4,8.41q-5.2,2.9-13,2.9-11.4,0-17.65-6.3t-6.25-17.61q0-11.31,6.07-17.61t17.1-6.3q10.67,0,16.41,6.16t5.75,17.57A33.25,33.25,0,0,1,874.45,88.65ZM845.26,71.92q-2.71,2.67-3.45,7.9h21.42A13.31,13.31,0,0,0,859.74,72a9.82,9.82,0,0,0-7.17-2.71A10,10,0,0,0,845.26,71.92Zm67.62,34.94L902.49,90.12l-10.57,16.74H877.85l16.92-23.27L878.68,60.88h14.53L903.05,77l9.83-16.09H927L910.77,83.59l16.55,23.27Zm67.12-8-.92,7.63a13.15,13.15,0,0,1-6,1.29q-8.83,0-10.58-6.9a12.57,12.57,0,0,1-6.25,5.15,26.25,26.25,0,0,1-10,1.75q-6.72,0-10.48-3T932,96q0-11.22,17.93-14.53l11-2.12v-2.2a8.09,8.09,0,0,0-2.07-5.84,7.58,7.58,0,0,0-5.75-2.16A11.85,11.85,0,0,0,946.26,71a9.67,9.67,0,0,0-3.68,6l-10-4.23a15.22,15.22,0,0,1,6.62-9.37Q944.33,60,952.6,60q9.84,0,15.36,4.28t5.51,12.64V95.73a3.68,3.68,0,0,0,.83,2.67,3.52,3.52,0,0,0,2.58.82A11.08,11.08,0,0,0,980,98.86Zm-22.39-1.61A6,6,0,0,0,961,91.87V87.09l-9.84,2.2a11.68,11.68,0,0,0-4.64,2A4.22,4.22,0,0,0,945,94.72a4.13,4.13,0,0,0,1.38,3.36,5.9,5.9,0,0,0,3.86,1.14A14.26,14.26,0,0,0,957.61,97.25Z"/></svg>