<svg xmlns="http://www.w3.org/2000/svg" viewBox="0 0 429.2 166.7" height="31" width="82"><path d="M409.1 19.5V9.4h4.5c.9 0 1.6.1 2 .3.5.2.8.5 1.1 1s.4 1 .4 1.5c0 .7-.2 1.3-.7 1.8s-1.2.8-2.1.9c.4.2.6.3.8.5.4.4.8.8 1.1 1.3l1.8 2.7h-1.7l-1.3-2.1c-.4-.6-.7-1.1-1-1.4l-.7-.7-.6-.3h-2.2v4.5h-1.4zm1.3-5.6h2.9c.6 0 1.1-.1 1.4-.2s.6-.3.8-.6.3-.6.3-.9c0-.5-.2-.9-.5-1.2s-.9-.5-1.6-.5h-3.2v3.4z"/><path d="M412.8 25c-5.7 0-10.4-4.7-10.4-10.4S407 4.3 412.8 4.3c5.7 0 10.4 4.7 10.4 10.4S418.5 25 412.8 25zm0-19.4c-5 0-9.1 4.1-9.1 9.1s4.1 9.1 9.1 9.1 9.1-4.1 9.1-9.1-4.1-9.1-9.1-9.1zM8 15.5h122.3v122.3H8z"/><path fill="#fff" d="M19.9 27.4h98.6V126H19.9z"/><path d="M58.7 65.8h94.1v94.1H58.7z"/><path fill="#F15A22" d="M69.9 77h71.5v71.5H69.9z"/><path d="M258.1 131.7c-.9 2.3-2.3 4.3-4 6.2-1.8 1.8-3.9 3.4-6.2 4.7s-4.9 2.3-7.5 3.1c-2.7.8-5.4 1.1-8.2 1.1-3.9 0-7.7-.8-11.2-2.3s-6.7-3.6-9.5-6.3-5.1-5.9-6.8-9.6c-1.6-3.4-2.6-7.2-3.1-11.4h77.7l.2-.8c.1-.7.2-1.5.3-2.7.1-1.1.1-2.3.1-3.7 0-6.3-1.1-12.5-3.4-18.4S271 80.4 266.8 76c-4.2-4.5-9.3-8.1-15.2-10.8s-12.6-4-19.8-4-13.9 1.3-19.8 4c-6 2.6-11.2 6.2-15.5 10.8-4.3 4.5-7.7 9.8-10.1 15.8s-3.6 12.4-3.6 19.1 1.2 13.1 3.6 19.2c2.4 6 5.7 11.4 10 15.9s9.5 8.1 15.4 10.8c6 2.6 12.7 4 19.8 4 4.7 0 9.4-.6 13.8-1.8s8.4-2.9 12-5.1c3.6-2.1 6.8-4.7 9.6-7.6s5-6.2 6.6-9.8l.5-1.1-15.7-4.3-.3.6zm-26.2-56.5c4 0 7.9.7 11.5 2.2 3.6 1.4 6.8 3.5 9.5 6s5 5.7 6.8 9.3c1.6 3.3 2.7 7 3.1 10.9h-61.5c.4-3.9 1.4-7.5 3-10.8 1.7-3.6 3.9-6.7 6.6-9.3s5.9-4.6 9.5-6.1c3.5-1.5 7.4-2.2 11.5-2.2zM403.2 28.8H289.1v17h78.6l-91.8 113.9h115.3v-17h-79.7"/></svg>
