<svg xmlns="http://www.w3.org/2000/svg" viewBox="0 0 82 31"><style>.st0{fill:#FFFFFF;} .st1{fill:#F05A22;}</style><path class="st0" d="M9.4 9h16.4V.9H1.2v24.6h8.2z"/><path class="st0" d="M11.4 11h18.9v18.9H11.4z"/><path class="st1" d="M13.7 13.3h14.4v14.4H13.7z"/><path class="st0" d="M51.6 24.3c-.2.5-.5.9-.8 1.2-.4.4-.8.7-1.2.9-.5.3-1 .5-1.5.6-.5.2-1.1.2-1.6.2-.8 0-1.6-.2-2.3-.5s-1.4-.7-1.9-1.3c-.6-.5-1-1.2-1.4-1.9-.3-.7-.5-1.5-.6-2.3h15.6V21c0-.1 0-.3.1-.5v-.7c0-1.3-.2-2.5-.7-3.7s-1.1-2.2-1.9-3.1-1.9-1.6-3.1-2.2c-1.2-.5-2.5-.8-4-.8-1.4 0-2.8.3-4 .8S40 12.1 39.2 13c-.9.9-1.6 2-2 3.2-.5 1.2-.7 2.5-.7 3.8s.2 2.6.7 3.9c.5 1.2 1.2 2.3 2 3.2.9.9 1.9 1.6 3.1 2.2 1.2.5 2.5.8 4 .8 1 0 1.9-.1 2.8-.4.9-.2 1.7-.6 2.4-1s1.4-.9 1.9-1.5c.6-.6 1-1.3 1.3-2l.1-.2-3.2-.9v.2zm-5.3-11.4c.8 0 1.6.1 2.3.4s1.4.7 1.9 1.2 1 1.1 1.4 1.9c.3.7.5 1.4.6 2.2H40.1c.1-.8.3-1.5.6-2.2s.8-1.4 1.3-1.9 1.2-.9 1.9-1.2c.8-.3 1.6-.4 2.4-.4zM80.8 3.6h-23V7h15.8L55.2 29.9h23.2v-3.4H62.3z"/></svg>
