<svg id="Layer_1" xmlns="http://www.w3.org/2000/svg" viewBox="0 0 84 79.9"><style>.st0{opacity:0.15;fill:#56352C;} .st1{fill:#FCB812;} .st2{fill:#514744;} .st3{fill:#FFDEAC;} .st4{fill:#F4EDEA;} .st5{fill:#F15A22;} .st6{fill:#E2491A;} .st7{fill:#FFFFFF;} .st8{fill:#15B4CE;} .st9{fill:#009BB1;} .st10{fill:#DA5221;} .st11{opacity:0.1;}</style><path class="st0" d="M78.9 7.8c.1-.4.1-.8.1-1.1v-.2-1-.3-1-.3V3L25.7 56.1l5.8 5.8 2.8-2.8.6.6c9.2-3.1 17.1-7.3 25.8-16C72.6 31.8 77.9 19.6 78.9 7.8z"/><path class="st1" d="M31.1 59.2c-1.1 2.9-4.7 10.7-11.5 14.9-7 4.4-15.2 4.5-15.5 3.7-.2-.5 3.4-.8 5-3.7 1.5-2.9-.3-5.4.9-10.5.1-.3.6-2.4 1.7-4.5 2.6-4.7 7.6-7.7 10.3-8.9l9.1 9z"/><path class="st2" d="M3.5 78.5c-.2-.2-.2-.3-.3-.5-.3-1 .7-1.4 1.4-1.6 1.1-.4 2.8-1.1 3.7-2.8.7-1.3.6-2.4.5-4.1-.1-1.6-.3-3.6.3-6.2.1-.4.6-2.6 1.8-4.8 3-5.6 9-8.5 10.8-9.3l.6-.2 9.9 9.9-.2.6c-.7 1.7-4.3 10.6-11.9 15.3-6.6 4.1-14.2 4.7-16 4-.3-.1-.4-.2-.6-.3zm18.4-27.3c-3.3 1.5-7.3 4.4-9.3 8.2-1.1 2-1.6 3.9-1.6 4.3-.6 2.4-.4 4.1-.3 5.7.1 1.7.2 3.3-.7 5.1-.7 1.3-1.7 2.2-2.7 2.7 2.8-.2 7.5-1.2 11.9-3.9 6.5-4 9.9-11.4 10.9-13.9l-8.2-8.2z"/><path class="st3" d="M28.9 57.5c-4.7 9.8-9.3 11.5-11.2 11.9-1.2.3-3.5.5-3.7.1-.1-.4 1.5-.8 2.2-2.2.6-1.4-.1-2.9-.3-3.6-.5-1.8.5-5.1 7.7-11.2l5.3 5z"/><path class="st4" d="M22.482 47.278l11.852 11.906-2.764 2.752L19.718 50.03z"/><path class="st2" d="M30.8 62.6L19 50.7c-.4-.4-.4-.9 0-1.3l2.8-2.8c.2-.2.4-.3.6-.3.2 0 .5.1.6.3l11.8 11.9c.2.2.3.4.3.6 0 .2-.1.5-.3.6L32 62.5c-.3.4-.8.4-1.2.1zm-9.9-12.5l10.5 10.6 1.5-1.5-10.5-10.6-1.5 1.5z"/><path class="st5" d="M31.7 49.8c7.1 7.1 9.2 17.4 6.3 26.4-.3.9.7 1.7 1.5 1.3 2-1.1 3.8-2.5 5.5-4.2 10.6-10.6 10.2-28-1.3-38-9.5-8.3-23.9-8.5-33.6-.5-2.5 2.1-4.5 4.5-6 7.1-.5.8.3 1.8 1.2 1.5 9.1-2.9 19.3-.7 26.4 6.4z"/><path class="st6" d="M43.8 35.2c-3.6-3.1-7.8-5.1-12.2-5.9 3.7 1 7.2 2.8 10.2 5.5 11.5 10 11.9 27.5 1.3 38-1.5 1.5-3.2 2.8-5 3.9.1.7.9 1.2 1.5.8 2-1.1 3.8-2.5 5.5-4.2 10.6-10.6 10.1-28-1.3-38.1z"/><path class="st7" d="M5.3 43c1.5-2.6 3.5-5.1 6-7.1 9.7-8.1 24.1-7.9 33.6.5.3.2.5.5.8.7-.6-.6-1.2-1.3-1.9-1.9-9.5-8.3-23.9-8.5-33.6-.5-2.5 2.1-4.5 4.5-6 7.1-.4.7.2 1.6 1 1.5-.1 0 0-.1.1-.3z"/><path class="st2" d="M37.6 77.9c-.5-.5-.7-1.3-.5-2 2.9-9 .6-18.8-6.1-25.5-6.7-6.7-16.4-9-25.4-6.2-.8.2-1.6 0-2.1-.6s-.5-1.4-.1-2.1c1.6-2.8 3.7-5.3 6.2-7.4 10-8.3 25-8.1 34.8.5 5.7 5 9 11.9 9.2 19.4.2 7.4-2.6 14.7-7.9 19.9-1.7 1.7-3.6 3.2-5.7 4.3-.7.4-1.6.3-2.2-.2-.1 0-.1 0-.2-.1zm-5.3-28.7s.1 0 0 0c7.2 7.2 9.7 17.7 6.6 27.3 0 .1 0 .1.1.2s.1 0 .1 0c1.9-1.1 3.7-2.5 5.3-4 4.9-5 7.6-11.7 7.4-18.7-.2-7-3.3-13.5-8.6-18.1-9.1-8-23.1-8.2-32.5-.5-2.4 2-4.3 4.3-5.8 6.9v.1c0 .1.1.1.2.1 9.7-3 20.1-.5 27.2 6.7z"/><path class="st4" d="M21.2 47.4c-.2-.2-.3-.6-.2-.9 3.6-10.6 8.3-18.2 16.3-26.1C50.3 7.4 65.1.8 79.1 1.9c.2 0 .4.1.6.3.1.1.2.4.3.6 1 13.9-5.7 28.8-18.7 41.7-8 7.9-15.5 12.6-26.1 16.2-.3.1-.7 0-.9-.2L21.2 47.4z"/><path class="st2" d="M79 2.8c.9 12.6-4.6 27.3-18.4 41-8.7 8.6-16.6 12.9-25.8 16-2-2-10.9-11-12.9-13 3.1-9.3 7.3-17.2 16-25.8C51.7 7.3 66.4 1.8 79 2.8m1.3-1.3c-.3-.3-.7-.5-1.2-.5-14.2-1-29.3 5.6-42.5 18.7-8.1 8-12.8 15.7-16.5 26.4-.2.7-.1 1.4.4 1.9l12.9 13c.5.5 1.2.7 1.9.4C46.1 57.8 53.7 53 61.8 45c13.3-13.1 20-28.1 19-42.4 0-.4-.2-.8-.5-1.1z"/><path class="st5" d="M65.9 15.8c2.8 2.9 5.9 6.1 8.5 9.1 3.7-7.7 5.1-15.6 4.6-22.1-6.5-.5-14.2.8-21.9 4.4 2.9 2.5 6 5.7 8.8 8.6z"/><path class="st8" d="M50.4 31.3c-2.9-2.9-2.9-7.7 0-10.6 2.9-2.9 7.6-2.9 10.6 0 2.9 2.9 2.9 7.7 0 10.6-3 2.9-7.7 2.9-10.6 0z"/><path class="st2" d="M60.3 21.4c2.6 2.6 2.6 6.7 0 9.3-2.6 2.6-6.7 2.5-9.3 0-2.6-2.6-2.5-6.7 0-9.3 2.6-2.6 6.7-2.6 9.3 0m1.3-1.3c-3.3-3.3-8.6-3.3-11.8 0-3.3 3.3-3.3 8.6 0 11.8 3.3 3.3 8.6 3.3 11.8 0 3.2-3.2 3.3-8.5 0-11.8z"/><path class="st8" d="M51 30.6c-2.6-2.6-2.5-6.7 0-9.3 2.6-2.6 6.7-2.5 9.3 0 2.6 2.6 2.5 6.7 0 9.3-2.6 2.6-6.7 2.6-9.3 0z"/><path class="st7" d="M51.4 21.8c1.5-1.5 3.5-2.3 5.4-2.2-2-.4-4.2.2-5.8 1.8-1.6 1.6-2.2 3.8-1.8 5.8 0-1.9.7-3.9 2.2-5.4z"/><path class="st9" d="M60.3 21.4c-.2-.2-.4-.4-.6-.5 2 2.6 1.8 6.3-.6 8.7-2.3 2.3-6.1 2.4-8.6.4.2.2.3.4.5.6 2.6 2.6 6.7 2.6 9.3 0 2.6-2.5 2.6-6.7 0-9.2z"/><path class="st5" d="M18 63.2c-.5-.6-.6-1.4-.1-2l22.5-26.3c1.7-1.9 4.7-2 6.5-.2 1.8 1.8 1.7 4.8-.3 6.5L20 63.2c-.6.5-1.4.5-2 0z"/><path class="st10" d="M47 34.6l-.2-.2L18 63.1c.5.5 1.4.6 2 .1l26.7-22.1c2-1.6 2.1-4.6.3-6.5z"/><g><path class="st2" d="M17.4 63.8c-.9-.9-.9-2.3-.1-3.3l22.5-26.3c1-1.1 2.4-1.8 3.9-1.8s2.9.5 4 1.6c1 1.1 1.6 2.5 1.6 4-.1 1.5-.8 2.9-1.9 3.9l-26.8 22c-.9.8-2.3.8-3.2-.1zm28.9-28.5c-.7-.7-1.6-1.1-2.6-1-1 0-1.9.5-2.5 1.2L18.6 61.7c-.2.2-.2.6 0 .8.2.2.6.2.8 0l26.7-22.1c.8-.6 1.2-1.5 1.2-2.5.1-1-.3-1.9-1-2.6z"/></g><g><path class="st7" d="M56.5 21.4c-.1-.1-.2-.3-.2-.5 0-.3.3-.6.7-.5.5.1.6.1 1 .3l.1.1c.3.1.4.5.3.8-.1.3-.5.4-.8.3l-.1-.1c-.3-.2-.3-.2-.6-.2-.2-.1-.3-.1-.4-.2z"/></g><g><path class="st7" d="M52 22.6c-.2-.3-.2-.7 0-.9.1-.1 1.7-1.5 3.7-1.5.3 0 .6.3.6.6s-.3.6-.6.6c-1.5 0-2.9 1.2-2.9 1.2-.2.2-.5.2-.8 0z"/></g><g class="st11"><path d="M79 8.5C75.2 18.6 68.8 30.2 57.9 41c-8.4 8.4-16.8 12.9-24.8 17 .7.8 1.4 1.4 1.7 1.7 9.2-3.1 17.1-7.3 25.8-16C72.4 32.1 78.1 19.7 79 8.5z"/></g><path class="st7" d="M38.2 22.9C48.6 12.5 53.1 9.4 62.1 5.2 57.3 7 48.5 10.5 37.9 21c-8.7 8.6-12.9 16.5-16 25.7l.2.2c3.9-7.7 8-16 16.1-24z"/></svg>
