<svg id="Layer_1" xmlns="http://www.w3.org/2000/svg" xmlns:xlink="http://www.w3.org/1999/xlink" viewBox="0 0 486 477"><style>.st0{fill:#ce1c21}.st3{fill:#007db6}.st4{fill:#e84441}.st5{fill:#e9c200}.st6{fill:#fee500}.st10{fill:#b5b093}.st11{fill:#cfc9b3}.st12{fill:#ebe9df}.st13{fill:#ad7a40}.st15{fill:#805625}.st16{fill:#8f622e}.st18{fill:#6b441e}.st20{fill:#593715}.st21{fill:#bb8547}.st22{fill:#9b6a3a}.st24{fill:#7a4300}.st25{fill:#381f00}.st26{fill:#fff}</style><path class="st0" d="M414 379.4s-9.9 86-89.8 84.5-67.7-78.2-67.7-78.2l40.6-53.6 29.9-8.6 93.4 25.3-6.4 30.6z"/><path d="M414 379.4s-41.8 15-121-38.3l21.3-22.8 78.5 15.5 35.2 16.6 3.2 12.2-17.2 16.8z" fill="#ad1521"/><path d="M407.1 225.4s45 95.5-79.1 74.5c-16.8-2.9-48.8-15.2-48.8-15.2l12.1 30L383 344l60.7-14.9-4.3-40.7-19-47.4-13.3-15.6z" fill="#ed4f5b"/><path class="st0" d="M216.8 278s41.2-2 71.2 9.7 79.3 38 110.3 20.8c24-13.4 25.9-58.9 8.8-83 0 0 98.6 56.6 66.2 119.2-9.7 18.7-41 50.7-105.4 25.3-7.8-3.1-41.9-19.9-73.5-39.6-15.9-9.9-66.3-35.1-66.3-35.1L216.8 278z"/><path class="st3" d="M235 290.4l-30-5.7-52.3.6-22.4 2.2L94.6 318v33.7s120.7 14.3 123.3 15c2.7.7 43-12.3 43-12.3l10.7-45.9-36.6-18.1z"/><path class="st3" d="M342.7 429.9l-46.5-106-230.9-.7-50.2 106.7c-7.5 16 4 34.4 21.4 34.4h34.6l19.7-53.5c21.2 2.3 70.5 2.5 99.5 1.7 28 .7 56.1.6 76.8-1.6l19.6 53.4h34.6c17.5-.1 28.9-18.5 21.4-34.4z"/><path class="st3" d="M160 277l-20.1.8s-44.4 7-54.3 12.7c-5.4 3.1-17.5 22.8-24.4 41.4l35.1 3.1 63.7-58zM199.2 277l19.6 1.4s45 12.7 54.9 18.4c4 2.3 11.5 11.3 19.4 22.5 2.9 4.1-5.5 15.7-5.5 15.7h-19.1l-69.3-58z"/><path class="st4" d="M142.1 277.8s-56.7-4.4-58.5 16.4c0 0 3.8 17.4 19 18.8 15.3 1.3 28.2-2.4 39.5-35.2z"/><circle class="st5" cx="112.2" cy="312.3" r="11.2"/><circle class="st6" cx="112.2" cy="312.3" r="8.7"/><path class="st3" d="M197.5 277l18.3.8s46.2 7 56.1 12.7c5.4 3.1 24 22.9 26.7 42.1l-3.9 3.6-6.7.8-26.7-2-63.8-58z"/><path class="st4" d="M215.4 277.8s56.7-4.4 58.5 16.4c0 0-3.8 17.4-19 18.8-15.2 1.3-28.1-2.4-39.5-35.2z"/><circle class="st5" cx="245.3" cy="312.3" r="11.2"/><circle class="st6" cx="245.3" cy="312.3" r="8.7"/><g><path d="M292.5 460.1H68.3L64 328.6c0-9.6 7.8-17.4 17.4-17.4h198.1c9.6 0 17.4 7.8 17.4 17.4l-4.4 131.5z" fill="#f9f9f9"/><path d="M292.5 465.9H68.3L64 334.4c0-9.6 7.8-17.4 17.4-17.4h198.1c9.6 0 17.4 7.8 17.4 17.4l-4.4 131.5z" fill="#e7e8ea"/></g><g id="Head"><g id="Horns"><path class="st10" d="M184.4 151.8c0-7.7.6-15.6 1.8-23.3.4-2.1-.2-4.1-1.5-5.6-4-4.7-2.1-12.4 3.6-15.3 3.5-1.7 3.9-4.4 5-7.6.7-2 .5-3.9-.4-5.7-2.8-5.2.3-12.2 6.1-14.1 3.6-1.2 4.3-3.6 6-6.7 1.2-2.1 1.3-4.4.4-6.6-2.5-5.5 2.3-12.5 8.4-12.3 4.6.2 6.4-3.2 9.7-6.8 1.5-1.6 2.1-3.6 2-5.9-.6-5.8 5.2-10.9 10.8-9.6 4 1 6.2-1.4 9.9-3.7 1.9-1.2 3.1-3 3.5-5.1 1-5.1 7.3-8 11.5-5.3 3.6 2.2 6.7.4 11.5-.8 2-.4 3.5-1.5 4.6-3.2 2.4-3.5 7.5-4 10.3-1.2 1.3 1.4 3 2.1 5 2.1 2.3.1 4.6.2 6.8.4 2 .3 3.9-.4 5.6-1.6 3.2-2.7 8.3-1.2 9.5 2.7 1.1 3.6 3.6 4.1 6.7 5.9 1.8 1 3.6 1.2 5.7.6 3.6-1.1 7.4 2.1 6.7 5.9-.5 3.8 1.6 5.4 3.7 8.4 1 1.4 2.3 2.3 4 2.8 2.7.6 4.2 3.6 3.2 6.4-1.2 3.3.3 5.6 1.3 9.5.4 1.5 1.3 2.8 2.7 3.7 2 1.4 2.5 4.4 1.2 6.6-1.9 2.9-1 5.8-.9 9.9 0 1.7.5 3.1 1.6 4.3 1.3 1.5 1.2 3.9-.3 5.4-2.3 2.6-2 5.4-2.7 9.3-.3 1.6-.1 3 .7 4.4.9 1.7.4 3.9-1.2 5.1-2.4 2-2.6 4.3-3.6 7.4-1.1 3.6 1.5 5.9-1.4 8.1-2.4 1.7-4.5 6.6-4.2 9.4.4 3.1-2.5 3.1-4.1 6.2-.9 1.6-1.4 2.6-1.4 4.5.1 2.5-2 1.9-4.1 5.2-2 3.2-.3 5.8-3.1 6.6-4.3 1.2-2.2 6-5 6.7-3.2.9-3.2 4.8-4.4 5.5-1 .4-1.7 1.1-2.4 1.9-6.3 7.5-10.3 11.3-17.7 18.2-1.7 1.5-2.8.4-1.6-1.3 36.7-46.1 45.4-87 35.7-111-10.1-25.3-36-26.6-56-14.5-36.1 21.9-43.6 76.3-45.4 119.9l-29.4.3-14.4-26.1z"/><path class="st11" d="M184.4 151.8c0-7.7.6-15.6 1.8-23.3.4-2.1-.2-4.1-1.5-5.6-4-4.7-2.1-12.4 3.6-15.3 3.5-1.7 3.9-4.4 5-7.6.7-2 .5-3.9-.4-5.7-2.8-5.2.3-12.2 6.1-14.1 3.6-1.2 4.3-3.6 6-6.7 1.2-2.1 1.3-4.4.4-6.6-2.5-5.5 2.3-12.5 8.4-12.3 4.6.2 6.4-3.2 9.7-6.8 1.5-1.6 2.1-3.6 2-5.9-.6-5.8 5.2-10.9 10.8-9.6 4 1 6.2-1.4 9.9-3.7 1.9-1.2 3.1-3 3.5-5.1 1-5.1 7.3-8 11.5-5.3 3.6 2.2 6.7.4 11.5-.8 2-.4 3.5-1.5 4.6-3.2 2.4-3.5 7.5-4 10.3-1.2 1.3 1.4 3 2.1 5 2.1 2.3.1 4.6.2 6.8.4 2 .3 3.9-.4 5.6-1.6 3.2-2.7 8.3-1.2 9.5 2.7 1.1 3.6 3.6 4.1 6.7 5.9 1.8 1 3.6 1.2 5.7.6 3.6-1.1 7.4 2.1 6.7 5.9-.5 3.8 1.6 5.4 3.7 8.4 1 1.4 2.3 2.3 4 2.8 2.7.6 4.2 3.6 3.2 6.4-1.2 3.3.3 5.6 1.3 9.5.4 1.5 1.3 2.8 2.7 3.7 2 1.4 2.5 4.4 1.2 6.6-1.9 2.9-1 5.8-.9 9.9 0 1.7.5 3.1 1.6 4.3 1.3 1.5 1.2 3.9-.3 5.4-2.3 2.6-2 5.4-2.7 9.3-.3 1.6-.1 3 .7 4.4.9 1.7.4 3.9-1.2 5.1-2.4 2-2.6 4.3-3.6 7.4-1.1 3.6 1.5 5.9-1.4 8.1-2.4 1.7-4.5 6.6-4.2 9.4.4 3.1-2.5 3.1-4.1 6.2-.9 1.6-1.4 2.6-1.4 4.5.1 2.5-2 1.9-4.1 5.2-2 3.2-.3 5.8-3.1 6.6-4.3 1.2-2.2 6-5 6.7-3.2.9-3.8 3.6-5.1 4.2 10.3-19.1 21-38.7 25.2-63 4.1-24.4-2.1-42.7-13.8-52.7-20.3-17.3-57.5-8.7-78.8 15.6-26 29.7-33.7 80.2-32.8 113l-15.8 2-14.5-26.2z"/><path class="st12" d="M215.3 114c8.9-43.8 30-69.4 67.5-80.2 18.4-5.2 36.4-.8 48.6 10.6 13.9 13 16.3 35.2 13.9 49.7 2.8-9.1 2.3-17.5 2.1-21.9-.2-2.4-.4-4.8 1.1-7.2 1.9-2.9-2.7-3-4.1-8.2-1.2-4-2.9-6.8-1.3-11.2.4-1.2-.3-2.6-1.4-2.8-2.3-.6-4.2-1.9-5.5-3.8-2.5-3.5-4.9-5.3-4.2-10.3.3-1.8-1.7-3.5-3.5-2.9-2.8.8-5.4.4-7.8-.9-3.7-2.1-6.6-2.8-8-7.4-.5-2-3.5-2.8-5.2-1.5-4.4 3.6-8.3 2-14.3 1.9-2.8 0-5.1-1-6.9-2.9-1.6-1.6-4.7-1.3-6 .7-1.6 2.2-3.7 3.7-6.4 4.3-5 1.2-8.9 3.5-13.7.4-2.6-1.6-6.7.3-7.3 3.4-.5 3-2.2 5.4-4.9 7.1-4.1 2.6-6.9 5.3-12.2 4.1-3.7-.9-7.8 2.7-7.4 6.5.4 3-.6 5.9-2.8 8.2-3.6 3.9-5.9 7.9-11.9 7.7-4.2-.2-7.5 4.7-5.8 8.3 1.3 2.9 1.2 6.2-.4 9.1-2.1 3.8-3.3 6.6-7.8 8.1-4.2 1.3-6.4 6.4-4.4 10.1 1.3 2.4 1.5 5.1.5 7.8-1.4 4.1-2 7.1-6.5 9.3-2.7 1.3-4.2 4.2-4.1 6.9.1 1.3 1.3 5 4.5 5.7 4.4 1 12.4 1.3 17.6 1.6 6.7.3 7-5.3 8-10.3z"/><g><path class="st10" d="M173 151.8c0-7.7-.6-15.6-1.8-23.3-.4-2.1.2-4.1 1.5-5.6 4-4.7 2.1-12.4-3.6-15.3-3.5-1.7-3.9-4.4-5-7.6-.7-2-.5-3.9.4-5.7 2.8-5.2-.3-12.2-6.1-14.1-3.6-1.2-4.3-3.6-6-6.7-1.2-2.1-1.3-4.4-.4-6.6 2.5-5.5-2.3-12.5-8.4-12.3-4.6.2-6.4-3.2-9.7-6.8-1.5-1.6-2.1-3.6-2-5.9.6-5.8-5.2-10.9-10.8-9.6-4 1-6.2-1.4-9.9-3.7-1.9-1.2-3.1-3-3.5-5.1-1-5.1-7.3-8-11.5-5.3-3.6 2.2-6.6.4-11.5-.8-2-.4-3.5-1.5-4.6-3.2-2.4-3.5-7.5-4-10.3-1.2-1.3 1.4-3 2.1-5 2.1-2.3.1-4.6.2-6.8.4-2 .3-3.9-.4-5.6-1.6-3.2-2.7-8.3-1.2-9.5 2.7-1.1 3.6-3.6 4.1-6.7 5.9-1.8 1-3.6 1.2-5.7.6-3.6-1.1-7.4 2.1-6.7 5.9.5 3.8-1.6 5.4-3.7 8.4-1 1.4-2.2 2.3-4 2.8-2.7.6-4.2 3.6-3.2 6.4 1.2 3.3-.3 5.6-1.3 9.5-.4 1.5-1.3 2.8-2.7 3.7-2 1.4-2.5 4.4-1.2 6.6 1.9 2.9 1 5.8.9 9.9 0 1.7-.5 3.1-1.6 4.3-1.2 1.4-1 3.8.4 5.3 2.3 2.6 2 5.4 2.7 9.3.3 1.6.1 3-.7 4.4-.9 1.7-.4 3.9 1.2 5.1 2.4 2 2.6 4.3 3.6 7.4 1.1 3.6-1.5 5.9 1.4 8.1 2.4 1.7 4.5 6.6 4.2 9.4-.3 3.1 2.6 3.1 4.1 6.2.9 1.6 1.4 2.6 1.4 4.5 0 2.5 2 1.9 4.1 5.2 2 3.2.3 5.8 3.1 6.6 4.3 1.2 2.2 6 5 6.7 3.2.9 3.2 4.8 4.5 5.5.9.4 1.6 1.1 2.3 1.9 6.3 7.5 10.3 11.3 17.7 18.2 1.7 1.5 2.8.4 1.6-1.3-36.7-46.1-45.4-87-35.7-111 10.1-25.3 36-26.6 56-14.5 36.1 21.9 43.6 76.3 45.4 119.9l29.4.3 14.3-26z"/><path class="st11" d="M173 151.8c0-7.7-.6-15.6-1.8-23.3-.4-2.1.2-4.1 1.5-5.6 4-4.7 2.1-12.4-3.6-15.3-3.5-1.7-3.9-4.4-5-7.6-.7-2-.5-3.9.4-5.7 2.8-5.2-.3-12.2-6.1-14.1-3.6-1.2-4.3-3.6-6-6.7-1.2-2.1-1.3-4.4-.4-6.6 2.5-5.5-2.3-12.5-8.4-12.3-4.6.2-6.4-3.2-9.7-6.8-1.5-1.6-2.1-3.6-2-5.9.6-5.8-5.2-10.9-10.8-9.6-4 1-6.2-1.4-9.9-3.7-1.9-1.2-3.1-3-3.5-5.1-1-5.1-7.3-8-11.5-5.3-3.6 2.2-6.6.4-11.5-.8-2-.4-3.5-1.5-4.6-3.2-2.4-3.5-7.5-4-10.3-1.2-1.3 1.4-3 2.1-5 2.1-2.3.1-4.6.2-6.8.4-2 .3-3.9-.4-5.6-1.6-3.2-2.7-8.3-1.2-9.5 2.7-1.1 3.6-3.6 4.1-6.7 5.9-1.8 1-3.6 1.2-5.7.6-3.6-1.1-7.4 2.1-6.7 5.9.5 3.8-1.6 5.4-3.7 8.4-1 1.4-2.2 2.3-4 2.8-2.7.6-4.2 3.6-3.2 6.4 1.2 3.3-.3 5.6-1.3 9.5-.4 1.5-1.3 2.8-2.7 3.7-2 1.4-2.5 4.4-1.2 6.6 1.9 2.9 1 5.8.9 9.9 0 1.7-.5 3.1-1.6 4.3-1.2 1.4-1 3.8.4 5.3 2.3 2.6 2 5.4 2.7 9.3.3 1.6.1 3-.7 4.4-.9 1.7-.4 3.9 1.2 5.1 2.4 2 2.6 4.3 3.6 7.4 1.1 3.6-1.5 5.9 1.4 8.1 2.4 1.7 4.5 6.6 4.2 9.4-.3 3.1 2.6 3.1 4.1 6.2.9 1.6 1.4 2.6 1.4 4.5 0 2.5 2 1.9 4.1 5.2 2 3.2.3 5.8 3.1 6.6 4.3 1.2 2.2 6 5 6.7 3.2.9 3.8 3.6 5.1 4.2-10.3-19.1-21-38.7-25.2-63-4.1-24.4 2.1-42.7 13.8-52.7C51.5 30 88.7 38.6 110 62.9c26 29.7 33.7 80.2 32.8 113l15.8 2 14.4-26.1z"/><path class="st12" d="M142.1 114c-8.9-43.8-30-69.4-67.5-80.2-18.3-5.2-36.3-.8-48.5 10.6-13.9 13-16.2 35.2-13.9 49.7C9.3 85 9.9 76.6 10 72.2c.2-2.4.4-4.8-1.1-7.2-1.9-2.9 2.7-3 4.1-8.2 1.2-4 2.9-6.8 1.3-11.2-.4-1.2.3-2.6 1.4-2.8 2.3-.6 4.2-1.9 5.5-3.8 2.5-3.5 4.9-5.3 4.2-10.3-.3-1.8 1.7-3.5 3.5-2.9 2.8.8 5.4.4 7.8-.9 3.7-2.1 6.6-2.8 8-7.4.6-2 3.5-2.8 5.2-1.5 4.4 3.6 8.3 2 14.4 1.9 2.7 0 5-1 6.8-2.9 1.6-1.6 4.7-1.3 6 .7 1.6 2.2 3.7 3.7 6.4 4.3 5 1.2 8.9 3.5 13.7.4 2.6-1.6 6.7.3 7.3 3.4.5 3 2.2 5.4 4.9 7.1 4.1 2.6 6.9 5.3 12.2 4.1 3.7-.9 7.8 2.7 7.4 6.5-.3 3 .6 5.9 2.8 8.2 3.6 3.9 5.9 7.9 11.9 7.7 4.2-.2 7.5 4.7 5.8 8.3-1.3 2.9-1.2 6.2.5 9.1 2 3.8 3.2 6.6 7.7 8.1 4.2 1.3 6.4 6.4 4.4 10.1-1.3 2.4-1.5 5.1-.5 7.8 1.4 4.1 2 7.1 6.5 9.3 2.7 1.3 4.2 4.2 4.1 6.9-.1 1.3-1.3 5-4.5 5.7-4.4 1-12.4 1.3-17.6 1.6-6.7.3-6.9-5.3-8-10.3z"/></g></g><g id="Neck"><path class="st13" d="M178.9 306.7c-23.4 0-30.7-13.2-38.7-23.7 1.2-2.7 1.8-4.9 1.9-7.4.7-6.4-.6-25.2-3.3-34.2-1.7-5.7-19.5-28-19.2-37.5.7-22.2 29.6-23.5 59-23.5s58.3 1.3 59 23.5c.4 9.6-17.5 31.9-19.2 37.5-2.7 9-4 27.8-3.3 34.2.3 2.5 1.1 5.1 2.1 7.4-7.9 10.6-16.4 23.7-38.3 23.7z"/><path d="M178.7 294.7c-6.7-.4-21.6-5.2-23.2-13.7-1.7-8.5-4.9-15.3-9.6-28.6-2.3-6.7-7.9-17-10.1-20-4.7-6.6-8.6-11.5-12-19.7l54.9-24.5 54.9 24.5c-3.4 8.3-7.3 13.1-12 19.7-2.2 3-7.8 13.3-10.1 20-4.7 13.3-7.9 20.1-9.6 28.6-1.6 8.5-16.4 13.3-23.2 13.7z" fill="#9c6b32"/></g><g id="Goatee"><path class="st15" d="M158.3 262c5.1 12.3 9.3 29.6 8.8 35.2 0 .9.9 1.2 1.4.8.8-.7 1.5-1.6 2.3-2.9.4 4.7-.5 9.2-2.8 13.2-.4.6.1 1.2.6 1.3 9 1.5 18.4-7.5 20.6-23.3.5 1.2.5 2.8.4 4.4-.1.9.9 1.2 1.4.7 2.2-2.1 2.8-5.5 3-12.7.1-2 .4-5.9 2.8-11.4l-16.3-10.9-22.2 5.6z"/><path class="st16" d="M170.8 295c.4 4.7-.5 9.2-2.8 13.2-.3.5-.1 1.1.3 1.2 5.6-2.5 9.5-7.5 10.3-13 .4 1.4.7 3 .2 5.5 3.2-2.4 3.8-6.3 2.9-10.6-3.1.6-8-.1-11.7-2.4.4 1.9.7 3.9.8 6.1z"/></g><g id="Head_1_"><path class="st13" d="M178.7 135.9c-14.5 0-29.2 4.3-42.2 12.9-11.9 14.2-18.4 34-16.9 55 .4 6.3 5 13.5 11.4 20.3 20.9 22.2 34.2 32.9 47.7 32.7 13.5.3 26.8-10.5 47.7-32.7 6.4-6.8 10.9-14 11.4-20.3 1.5-21-5-40.8-16.9-55-13-8.6-27.6-12.9-42.2-12.9z"/><path d="M134.1 194.6c-10.3 2.3-9.1 22.6-3.1 29.6 9.5 10.9 19.2 25.2 23.2 30.5 3.8 5.1 5.4 24.2 9.3 28.1 1.9 1.9 9.7 5.6 15.2 5.8 5.5-.2 13.3-3.9 15.2-5.8 3.9-3.9 5.5-23.1 9.3-28.1 4-5.3 13.7-19.6 23.2-30.5 6-6.9 7.2-27.3-3.1-29.6l-12.1-.4-12.3 10.5c-2.9 2.7-6.7 7.4-8.5 12.6-4-.2-7.4-2-11.6-1.9-4.3-.1-7.6 1.7-11.6 1.9-1.8-5.2-5.6-9.9-8.5-12.6l-12.3-10.5-12.3.4z" fill="#bc8548"/><path class="st18" d="M178.7 251.9l-19 5.6c.8 12.3 4.5 18 6.2 19.6 2 1.9 7.4 2.8 12.8 2.8 5.4-.1 10.8-1 12.8-2.8 1.7-1.6 5.4-7.4 6.2-19.6l-19-5.6z"/><path d="M165.1 271.7c1.2 1.5 7.4 2.3 13.6 2.4 6.2-.1 12.3-.9 13.6-2.4 2.6-3.2 7.9-18.7 8.3-26.2.3-4.4-12.8-29.6-12.4-49.9.2-6.7 3.1-14.6 6.3-19.3 6-9.1 16.1-15.7 33.9-6.9-5.7-19.2-27.7-28.8-49.7-28.8-22 0-44 9.6-49.7 28.8 17.8-8.8 27.9-2.1 33.9 6.9 3.2 4.7 6.1 12.6 6.3 19.3.4 20.3-12.7 45.5-12.4 49.9.4 7.5 5.7 23 8.3 26.2z" fill="#cf9655"/></g><g id="Nose"><path class="st18" d="M188.3 244.1c2.8-.7 4.6 2.3 6.2 6.1-5.1 2.7-9.3 3.7-13.1 5.6-.8.4-1.6 1.2-1.8 2.4-.4 2.5-.6 4.3-.9 7.7-.3-3.5-.4-5.2-.9-7.7-.2-1.2-1-2-1.8-2.4-3.8-1.9-8.1-2.9-13.1-5.6 1.6-3.8 3.4-6.8 6.2-6.1 5 1.3 7.3 2 9.6 2s4.6-.6 9.6-2z"/><path class="st20" d="M192.7 250.2c-3.2.6-8.5 4.3-11.9 4.8 3.5-2.8 5.2-5.7 7.5-6.5.7-.2 3.1-.8 4.4 1.7zm-28 0c3.2.6 8.5 4.3 11.9 4.8-3.5-2.8-5.2-5.7-7.5-6.5-.7-.2-3.1-.8-4.4 1.7z"/></g><g id="Hair"><path class="st15" d="M220.9 148.8c-14.6-18.8-44.7-29.1-75.8-16.1-.8.4-.7 1.3.2 1.4 2.1.2 3.3.4 4.9.9-8.8 2.8-15.4 9.3-22.5 11.5-.8.3-.9 1.3-.2 1.7 9.5 4.3 20.3 6.7 27.9 5.5-4.4 3.7-7.4 2.8-7.4 4.3 0 .4.2.8.6.9 10.8 3.3 23.8 2.2 34.2-1.6 15-5.4 27.4-14.6 38.1-8.5z"/><path class="st16" d="M202.7 140c-3.9-4.4-12.8-12.3-29.4-13.1-9.1 0-18.6 1.8-28.2 5.9-.8.4-.7 1.3.2 1.4 2.1.2 3.3.4 4.9.9-8.8 2.8-15.4 9.3-22.5 11.5-.8.3-.9 1.3-.2 1.7 9.5 4.3 20.3 6.7 27.9 5.5-4.4 3.7-7.4 2.8-7.4 4.3 0 .4.2.8.6.9 29.4 1.3 28.3-10.4 54.1-19z"/></g><g id="Ears"><g id="Ear_Right"><path class="st13" d="M93.1 143.9c-2.2 11.3-2.3 33.1 9.4 46.7 5.9 6.9 14.5 13 20.8 8.9 2.2-12.8-.3-24.5-4.9-32.8-5.2-9.5-18-16.6-22.1-26.1-1.7-4.2-2.6.5-3.2 3.3z"/><path class="st21" d="M123.5 181.8c-.9-5.8-2.7-10.9-5.1-15.2-5.2-9.5-18-16.6-22.1-26.1-.9-2-1.5-1.9-2-.9-1.4 22.2 8.3 40.9 18.4 51.5 4.3 4.6 12.1-.9 10.8-9.3z"/><path class="st22" d="M94 146.6c-1.1 6.2-1.2 16.2 1.3 25.6 2.6 9.1 10.1 19.8 17.1 21.5-1.4-3.6.5-5.7 3.6-4.4 1.3-8.5-1.3-16.9-4.3-22.6-4.1-7.9-12.5-14.3-15.6-22.2-1.3-3.5-1.6-.2-2.1 2.1z"/></g><g id="Ear_Left"><path class="st13" d="M264.3 143.9c2.2 11.3 2.3 33.1-9.4 46.7-5.9 6.9-14.5 13-20.8 8.9-2.2-12.8.3-24.5 4.9-32.8 5.2-9.5 18-16.6 22.1-26.1 1.7-4.2 2.6.5 3.2 3.3z"/><path class="st21" d="M233.9 181.8c.9-5.8 2.7-10.9 5.1-15.2 5.2-9.5 18-16.6 22.1-26.1.9-2 1.5-1.9 2-.9 1.4 22.2-8.3 40.9-18.4 51.5-4.3 4.6-12.1-.9-10.8-9.3z"/><path class="st22" d="M263.4 146.6c1.1 6.2 1.2 16.2-1.3 25.6-2.6 9.1-10.1 19.8-17 21.5 1.3-3.6-.6-5.7-3.6-4.4-1.3-8.5 1.3-16.9 4.3-22.6 4.1-7.9 12.5-14.3 15.6-22.2 1.2-3.5 1.5-.2 2 2.1z"/></g></g><g id="Eyes"><g id="Eye_Left"><path class="st20" d="M158.6 204.7c-1.9-1.2-6.3-2-8.5-2.7-4.1-4.5-8.2-6.9-13.8-6.7-.7-.2-1.2-.4-2-.7-.3-7.2 3.4-12.1 8.1-13 4.4-.9 11.3 2.5 13.2 7.5 1.3 3.2 1.3 7.9 1.4 11.5 0 .8.7 1.4 1.4 2.2.2.5.2 1.4.2 1.9z"/><defs><path id="SVGID_1_" d="M154.8 201.5c0-.4.1-1.1.1-1.7 0-2.8-.2-6.9-1.1-9.4-.5-1.4-1.8-3.1-3.5-4.4-1.9-1.4-4.3-2.4-7.3-2.2-5.4.3-7.5 7.3-6.9 11.5 1.7.9 3.2 1.9 4.8 2.9 2.4 1.5 5.1 2.9 9.1 3.8.3.1.8.1 1.4.1 1.2 0 2.7-.1 3.4-.6z"/></defs><use xlink:href="#SVGID_1_" overflow="visible" fill="#fff"/><clipPath id="SVGID_2_"><use xlink:href="#SVGID_1_" overflow="visible"/></clipPath><g clip-path="url(#SVGID_2_)"><path id="_x31__6_" class="st24" d="M147.5 185.7c4.6-.2 8.6 3.5 8.8 8.1.2 4.7-3.5 8.7-8.1 8.9-4.7.2-8.6-3.5-8.9-8.1-.1-4.7 3.5-8.6 8.2-8.9z"/><path class="st25" d="M147.6 188.7c3-.1 5.6 2.2 5.7 5.2.2 3-2.2 5.6-5.2 5.7-3 .2-5.5-2.2-5.7-5.2-.1-3 2.2-5.6 5.2-5.7z"/><path class="st26" d="M143.9 185.5c1.5-.1 2.8 1.2 2.9 2.8.1 1.5-1.2 2.8-2.8 2.9-1.5.1-2.8-1.2-2.9-2.8 0-1.4 1.2-2.8 2.8-2.9z"/></g></g><g id="Eye_Right"><path class="st20" d="M198.9 204.7c1.9-1.2 6.3-2 8.5-2.7 4.1-4.5 8.2-6.9 13.8-6.7.7-.2 1.2-.4 2-.7.3-7.2-3.4-12.1-8.1-13-4.4-.9-11.3 2.5-13.2 7.5-1.3 3.2-1.3 7.9-1.4 11.5 0 .8-.7 1.4-1.4 2.2-.3.5-.3 1.4-.2 1.9z"/><defs><path id="SVGID_3_" d="M202.6 201.5c0-.4-.1-1.1-.1-1.7 0-2.8.2-6.9 1.1-9.4.5-1.4 1.8-3.1 3.5-4.4 1.9-1.4 4.4-2.4 7.3-2.2 5.4.3 7.5 7.3 6.9 11.5-1.7.9-3.2 1.9-4.8 2.9-2.4 1.5-5.1 2.9-9.1 3.8-.3.1-.8.1-1.4.1-1.2 0-2.7-.1-3.4-.6z"/></defs><use xlink:href="#SVGID_3_" overflow="visible" fill="#fff"/><clipPath id="SVGID_4_"><use xlink:href="#SVGID_3_" overflow="visible"/></clipPath><g clip-path="url(#SVGID_4_)"><path id="_x31__7_" class="st24" d="M209.9 185.7c-4.6-.2-8.6 3.5-8.8 8.1-.2 4.7 3.5 8.7 8.1 8.9 4.7.2 8.6-3.5 8.9-8.1.1-4.7-3.5-8.6-8.2-8.9z"/><path class="st25" d="M209.8 188.7c-3-.1-5.6 2.2-5.7 5.2-.2 3 2.2 5.6 5.2 5.7 3 .2 5.5-2.2 5.7-5.2.1-3-2.2-5.6-5.2-5.7z"/><path class="st26" d="M213.5 185.5c-1.5-.1-2.8 1.2-2.9 2.8-.1 1.5 1.2 2.8 2.8 2.9 1.5.1 2.8-1.2 2.9-2.8 0-1.4-1.2-2.8-2.8-2.9z"/></g></g></g></g></svg>
