<svg xmlns="http://www.w3.org/2000/svg" version="1.1" x="0px" y="0px" viewBox="0 0 84 65"><style type="text/css">
	.st0{fill:#FFFFFF;}
	.st1{fill:#514744;}
	.st2{fill:#2B85B0;}
	.st3{fill:#FCB812;}
	.st4{fill:#F15A22;}
	.st5{fill:#D13100;}
	.st6{fill:#FEBB31;}
	.st7{fill:#71D109;}
</style><path class="st0" d="M9.2 61.8c-3.3 0-5.9-2.6-5.9-5.9V13.7c0-0.7 0.6-1.2 1.2-1.2h63.2c0.7 0 1.2 0.6 1.2 1.2v42.2c0 3.2-2.7 5.9-5.9 5.9C63 61.8 9.2 61.8 9.2 61.8z"/><path class="st1" d="M67.6 13.7v42.2c0 2.6-2.1 4.6-4.7 4.6H9.2c-2.6 0-4.7-2.1-4.7-4.6V13.7H67.6M67.6 11.3H4.5c-1.4 0-2.5 1.1-2.5 2.5V56c0 3.8 3.2 7 7.2 7H63c3.9 0 7.2-3.2 7.2-7.1V13.7C70.1 12.4 69 11.3 67.6 11.3L67.6 11.3z"/><path class="st2" d="M12.7 27.1h12.1c1 0 1.9-0.8 1.9-1.9l0 0c0-1-0.8-1.9-1.9-1.9H12.7c-1 0-1.9 0.8-1.9 1.9l0 0C10.8 26.3 11.7 27.1 12.7 27.1z"/><path class="st3" d="M31.2 27.1h12.1c1 0 1.9-0.8 1.9-1.9l0 0c0-1-0.8-1.9-1.9-1.9H31.2c-1 0-1.9 0.8-1.9 1.9l0 0C29.4 26.3 30.2 27.1 31.2 27.1z"/><path class="st2" d="M20.6 44.3h12.1c1 0 1.9-0.8 1.9-1.9l0 0c0-1-0.8-1.9-1.9-1.9H20.6c-1 0-1.9 0.8-1.9 1.9l0 0C18.8 43.5 19.6 44.3 20.6 44.3z"/><path class="st3" d="M39.2 44.3h12.1c1 0 1.9-0.8 1.9-1.9l0 0c0-1-0.8-1.9-1.9-1.9H39.2c-1 0-1.9 0.8-1.9 1.9l0 0C37.3 43.5 38.2 44.3 39.2 44.3z"/><path class="st4" d="M32.2 36.2h16.1c1 0 1.9-0.8 1.9-1.9l0 0c0-1-0.8-1.9-1.9-1.9H32.2c-1 0-1.9 0.8-1.9 1.9l0 0C30.3 35.4 31.2 36.2 32.2 36.2z"/><path class="st3" d="M20.6 36.2h4.9c1 0 1.9-0.8 1.9-1.9l0 0c0-1-0.8-1.9-1.9-1.9h-4.9c-1 0-1.9 0.8-1.9 1.9l0 0C18.8 35.4 19.6 36.2 20.6 36.2z"/><path class="st2" d="M56.1 36.2h12.1c1 0 1.9-0.8 1.9-1.9l0 0c0-1-0.8-1.9-1.9-1.9H56.1c-1 0-1.9 0.8-1.9 1.9l0 0C54.3 35.4 55.1 36.2 56.1 36.2z"/><path class="st4" d="M12.4 53.3h12.1c1 0 1.9-0.8 1.9-1.9l0 0c0-1-0.8-1.9-1.9-1.9H12.4c-1 0-1.9 0.8-1.9 1.9l0 0C10.6 52.5 11.4 53.3 12.4 53.3z"/><path class="st3" d="M32.4 53.3h12.1c1 0 1.9-0.8 1.9-1.9l0 0c0-1-0.8-1.9-1.9-1.9H32.4c-1 0-1.9 0.8-1.9 1.9l0 0C30.5 52.5 31.3 53.3 32.4 53.3z"/><path class="st4" d="M4.5 14.9c-0.7 0-1.2-0.6-1.2-1.2V6.9c0-2 1.7-3.7 3.7-3.7h58.2c2 0 3.7 1.6 3.7 3.7v6.8c0 0.7-0.6 1.2-1.2 1.2C67.7 14.9 4.5 14.9 4.5 14.9z"/><path class="st1" d="M65.2 4.4c1.4 0 2.5 1.1 2.5 2.4v6.8H4.5V6.9c0-1.3 1.1-2.4 2.5-2.4L65.2 4.4M65.2 2H6.9C4.2 2 2 4.2 2 6.9v6.8c0 1.4 1.1 2.5 2.5 2.5h63.2c1.4 0 2.5-1.1 2.5-2.5V6.9C70.1 4.2 67.9 2 65.2 2L65.2 2z"/><path class="st5" d="M8.7 7.6L8.7 7.6c-0.8 0-1.4 0.6-1.4 1.3V9c0 0.7 0.6 1.3 1.3 1.3h0.1C9.4 10.4 10 9.8 10 9V8.9C10 8.2 9.4 7.6 8.7 7.6"/><path class="st6" d="M12.7 7.6h-0.1c-0.7 0-1.3 0.6-1.3 1.3V9c0 0.7 0.6 1.3 1.3 1.3h0.1c0.7 0 1.3-0.6 1.3-1.3V8.9C14.1 8.2 13.5 7.6 12.7 7.6"/><path class="st7" d="M16.8 7.6h-0.1c-0.7 0-1.3 0.6-1.3 1.3V9c0 0.7 0.6 1.3 1.3 1.3h0.1c0.7 0 1.3-0.6 1.3-1.3V8.9C18.1 8.2 17.5 7.6 16.8 7.6"/><path class="st0" d="M62.5 7.5H21.3c-0.3 0-0.6 0.3-0.6 0.6V10c0 0.3 0.3 0.6 0.6 0.6h41.2c0.3 0 0.6-0.3 0.6-0.6V8.1C63 7.8 62.8 7.5 62.5 7.5"/><path class="st0" d="M58.7 25.2h18.8c1.8 0 3.3 1.5 3.3 3.3v17.4c0 1.8-1.5 3.3-3.3 3.3H58.7c-1.8 0-3.3-1.5-3.3-3.3V28.5C55.4 26.6 56.9 25.2 58.7 25.2z"/><path class="st1" d="M77.5 50.4H58.7c-2.5 0-4.5-2-4.5-4.5V28.5c0-2.5 2-4.5 4.5-4.5h18.8c2.5 0 4.5 2 4.5 4.5v17.4C82 48.3 80 50.4 77.5 50.4zM58.7 26.4c-1.1 0-2.1 0.9-2.1 2.1v17.4c0 1.1 0.9 2.1 2.1 2.1h18.8c1.1 0 2.1-0.9 2.1-2.1V28.5c0-1.1-0.9-2.1-2.1-2.1H58.7z"/><path class="st4" d="M73 40h-5c-0.8 0-1.4 0.6-1.4 1.4 0 0.8 0.6 1.4 1.4 1.4h5c0.8 0 1.4-0.6 1.4-1.4S73.8 40 73 40zM63.2 40H61c-0.8 0-1.4 0.6-1.4 1.4 0 0.8 0.6 1.4 1.4 1.4h2.1c0.8 0 1.4-0.6 1.4-1.4C64.6 40.6 63.9 40 63.2 40zM73 35.8h-2.9c-0.8 0-1.4 0.6-1.4 1.4 0 0.8 0.6 1.4 1.4 1.4H73c0.8 0 1.4-0.6 1.4-1.4C74.4 36.4 73.8 35.8 73 35.8zM67.4 37.2c0-0.8-0.6-1.4-1.4-1.4h-0.7c-0.8 0-1.4 0.6-1.4 1.4 0 0.8 0.6 1.4 1.4 1.4H66C66.7 38.6 67.4 37.9 67.4 37.2zM73 31.5h-7.8c-0.8 0-1.4 0.6-1.4 1.4l0 0c0 0.8 0.6 1.4 1.4 1.4H73c0.8 0 1.4-0.6 1.4-1.4l0 0C74.4 32.1 73.8 31.5 73 31.5zM61 34.3c0.8 0 1.4-0.6 1.4-1.4l0 0c0-0.8-0.6-1.4-1.4-1.4 -0.8 0-1.4 0.6-1.4 1.4l0 0C59.6 33.7 60.3 34.3 61 34.3z"/></svg>