<svg xmlns="http://www.w3.org/2000/svg" version="1.1" x="0px" y="0px" viewBox="0 0 37 37"><style type="text/css">
	.st0{fill:#fff;}
	.st1{fill-rule:evenodd; clip-rule:evenodd; fill:#fff;}
</style><g><path class="st0" d="M18.5 3C27 3 34 10 34 18.5S27 34 18.5 34 3 27 3 18.5 10 3 18.5 3M18.5 1C8.8 1 1 8.8 1 18.5S8.8 36 18.5 36 36 28.2 36 18.5 28.2 1 18.5 1L18.5 1z"/></g><g id="Shape_39729_copy_2"><path class="st1" d="M24.2 18.7c-0.6-0.5-1.9-0.4-2.5 0.1L19.4 21v-7.4c0-0.7-0.4-1.1-1.2-1.1 -0.8 0-1.2 0.4-1.2 1.1V21l-2.2-2.3c-0.6-0.5-1.5-0.5-2 0 -0.6 0.5-0.6 1.4 0 1.9l4.5 4.3c0.3 0.4 0.7 0.6 1.2 0.6 0.5 0 0.9-0.2 1.2-0.6l4.5-4.3C24.7 20.1 24.8 19.2 24.2 18.7z"/></g></svg>