<svg xmlns="http://www.w3.org/2000/svg" viewBox="0 0 636 470"><style>.st0{fill:#59564D;} .st1{fill:#FFFFFF;} .st2{fill:#F8EED4;} .st3{fill:#D8CBB2;} .st4{fill:#C6B699;} .st5{fill:#FCF2DE;} .st6{fill:#E0E0E0;} .st7{fill:#CCBD9E;}</style><path class="st0" d="M348.2 78.7l18.6 4.5 10.5 1 3.6.8.5 3.5c12.1 7.8 22.4 27.8 22.3 27.8l-5.7.2c-.2 2.2 2.8 13.5 2.8 13.5-.2.1-.6.1-1 .1-1.4 0-3.5-.5-3.5-.5.4 11.2 5.5 12.8 4.4 12.8h-.1c-1.6-.1-6.1-.2-6.1-.2-3.5 17-7.9 17-8 17-1.6-1.5-5.9-17.8-5.9-17.8-1.3 3.5-4.2 3.7-4.7 3.7h-.1c1.4-3.4 1.2-12 1.2-12-1.9 2.3-3 2.8-3.7 2.8-.5 0-.7-.3-.7-.3.1-2.3-.5-13-.5-13-2.3 2.5-4 2.8-4.8 2.8h-.4c.7-2.6 0-9.3 0-9.3-1.5 1.2-4.4 2-4.4 2s.4-7.9-1.7-9.9c0 0-6.9 4.3-14 4.4 2.8-2.7 4.3-5.4 5.7-7.4 3.6-5.4.8-16.1.1-18.1-.5-1.4-2.7-5.3-4.4-8.4m-4-3l2.2 4c3.5 6.2 4.1 7.6 4.2 7.9 1.2 3.6 2.8 12.3.2 16.3-.2.3-.4.6-.7 1-1.2 1.8-2.6 3.9-4.8 6.1l-3.6 3.5 5-.1c5.4-.1 10.5-2.3 13.2-3.7.4 1.6.7 4.5.5 7.1l-.1 2.8 2.7-.7c.2 0 1.1-.3 2.1-.7.1 2.2.1 4.5-.2 5.5l-.5 1.9 1.9.6c.2 0 .5.1 1 .1.8 0 1.8-.2 3-.8.2 3.6.4 7.7.3 9v.6l.4.5c.4.6 1.2 1.2 2.3 1.2.5 0 1.1-.1 1.6-.4-.1 2.6-.4 5.4-1 6.8l-1.1 2.6 2.8.2h.2c1.2 0 2.6-.4 3.9-1.3 1.9 6.7 4.1 13.6 5.4 14.9l.6.5h.8c1.8 0 6.2-1.7 9.6-17 1.4 0 3.4.1 4.3.2h.3c1.1 0 1.7-.7 2-1.3.5-1.3-.4-2.2-.7-2.5-.7-.7-2.8-2.8-3.5-8.6.4 0 .9.1 1.3.1.7 0 1.2-.1 1.7-.3l1.7-.6-.4-1.7c-1-3.9-2.1-8.5-2.5-11.1l3.6-.1h1.5l.4-1.4c.2-.8.3-1-2-4.9-1-1.8-2.8-4.7-4.9-7.8-3.7-5.3-9.3-12.5-15.5-16.8l-.4-2.6-.2-1.4-1.4-.3-3.6-.8h-.2l-10.4-1c-1.4-.3-12.7-3-18.4-4.4l-4.6-1.1z"/><path class="st1" d="M264.6 163.2c-.2 0-.5 0-.7-.1-.4-.1-.8-.3-1.1-.6-.4-.4-.6-.9-.7-1.6-.4 0-.7.1-1.1.1-.7 0-1.4-.1-2.1-.3-.3-.1-.6-.2-.8-.2-.5-.2-2.7-1-3-2.7-.1-.4 0-.8.2-1.2-1.8-1.6-3.3-4.1-3.7-4.9-.4-1-.6-3.6.3-4.7.2-.2.3-.3.5-.4-.7-2.7-.5-4.7.6-6.7.8-1.4 1.7-1.7 2.4-1.7.2 0 .4 0 .6.1 1.2.3 1.8 1.4 2.2 2.4 1.3 3 3 4.8 5 5.3.5.1.9.2 1.4.2 1 0 2-.3 2.6-.5.3-.2 1.8-1.7 3.2-3.5l1.3-1.7 1.3 1.6c1.7 2 2.6 3.5 2.7 4.4v.4l-4.1 13.7-2 .2c-1 1-3.3 2.4-5 2.4z"/><path class="st0" d="M255.5 139.1h.3c.7.2 1.2 1 1.5 1.9 1.4 3.3 3.3 5.3 5.7 5.9.6.1 1.1.2 1.7.2 1.1 0 2.2-.3 2.9-.6.6-.2 2.4-2.2 3.7-3.9l.5-.7.5.7c.7.8 2.3 2.9 2.5 3.8v.1l-3.8 12.8-1.7.2c-1.2 1.2-3.3 2.5-4.8 2.5-.2 0-.3 0-.4-.1-.2-.1-.5-.2-.6-.4-.5-.5-.5-1.4-.4-2.1-.7.2-1.4.3-2.1.3-.6 0-1.2-.1-1.8-.2-.3-.1-.5-.1-.7-.2-.1 0-2.2-.8-2.4-1.9-.1-.4.1-.8.4-1l.2-.1c-1.9-1.3-3.8-4.3-4.2-5.2-.4-.8-.4-3 .2-3.6.2-.2.4-.3.7-.3h.2c.1 0 .2.1.2.1-1.2-3.5-.8-5.4.2-7.1.5-.8 1.1-1.1 1.5-1.1m0-2c-.7 0-2.2.3-3.2 2.2-1.2 2.1-1.5 4.2-.9 6.8l-.2.2c-1.3 1.5-1 4.6-.5 5.7.4.9 1.8 3.2 3.5 4.8-.1.3-.1.7 0 1.1.4 2.2 2.9 3.2 3.7 3.5l.9.3c.8.2 1.5.3 2.3.3h.3c.2.5.5.9.7 1.2.4.4 1 .8 1.6.9.3.1.6.1.9.1 2 0 4.3-1.5 5.6-2.6l1-.1 1.3-.1.4-1.3 3.8-12.8.1-.4-.1-.4v-.1c-.1-.5-.2-1.6-2.9-4.9l-.5-.7-1.6-1.9-1.5 2-.5.7c-1.2 1.6-2.5 2.9-2.9 3.3-.5.2-1.3.4-2.1.4-.4 0-.8 0-1.2-.1-1.8-.5-3.2-2-4.4-4.7-.3-.8-1.1-2.6-2.9-3-.2-.3-.4-.4-.7-.4zM358 225.9v-.2c.7-3.5 1-3.5 1.3-3.5.4-.1 4.2-2.1 4.7-2.4.1-.1.3-.2 2.5.4 3.1.8 8.5 2.4 8.5 2.4h.1l.1.1c.2.3 5.9 6.6 6.7 7.5.3.3.7.9.3 1.7-.1.1-1.4-.5-2.1-.6.2.7.1 2 0 2.1-1.5 1.2-4.4 2.4-12.9 3.2h-.2l-9-10.7z"/><path class="st0" d="M365.7 239.2l-10.4-12.6.3-1.3c.6-2.8 1-5 3-5.5.8-.4 3.7-1.9 4.1-2.2 1.2-.7 2.2-.4 4.4.1 3.2.8 8.6 2.4 8.6 2.5l.7.2.7.7c1.8 2 6 6.7 6.7 7.5 1.6 2 .9 3.8.5 4.5-.5.8-1.1 1.2-2 1.3-.2.4-.4.7-.8 1-1.9 1.4-4.9 2.9-14.2 3.7l-1.6.1zm-5-13.9l7.2 8.7c5.7-.6 8.3-1.4 9.6-2.1v-.1l-.9-3.4h.3c-1-1.1-2.2-2.4-3.2-3.6-1.5-.5-5.4-1.6-7.8-2.2-.6-.2-1-.2-1.2-.3-.9.5-2.5 1.4-3.6 1.9-.2.3-.3.6-.4 1.1zm17.7 6.1zm-13.2-9.5l-.1.1c.1 0 .1 0 .1-.1z"/><path class="st2" d="M360.3 226.9c-.7-1.2-4-7-4.2-9.2-.1-1.3.4-4 1.2-8.1.4-2.1.8-4.1.9-5.2.3-2.7 0-20.9 0-22l-1.1-8.6.5-.3c.8-.5 7.9-5.3 11.4-5.3 1.9 0 2.4 1.3 2.5 1.9.5 2.6-.8 8.7-1.9 13.6-.5 2.3-1 4.8-1 5.4.7 5.5-.5 14.4-.5 14.5-.1.7.4 7.8 1.2 10.9.5 2.1 2.1 3 3.7 3.9.4.2.8.4 1.1.6 1.2.8 3.2 2 3.3 3.8 0 .9-.4 1.8-1.3 2.5-2.5 2-12.8 2.2-14.9 2.2h-.6l-.3-.6z"/><path class="st0" d="M369.1 169.2c.8 0 1.4.3 1.5 1.1.7 3.8-3.1 17.3-2.8 18.9.7 5-.4 13.3-.5 14.2-.1.9.4 8.2 1.2 11.3.7 3.1 3.5 4 5.2 5.1 1.7 1.1 4.2 2.8 1.9 4.7-2.4 1.9-14.2 2-14.2 2s-3.9-6.7-4.1-8.8c-.2-2.1 1.8-10.3 2.1-13.2.3-2.8 0-22.2 0-22.2l-1-8c-.2 0 7.3-5.1 10.7-5.1m0-2c-3.7 0-10.7 4.5-12 5.5l-1 .7.2 1.2 1 7.9c.1 5.4.2 19.6 0 21.8-.1 1.1-.5 3-.9 5.1-.8 4.3-1.3 7-1.2 8.4.2 2.4 3.4 8 4.3 9.6l.6 1h1.2c3.8 0 12.9-.3 15.5-2.4 1.5-1.2 1.7-2.5 1.7-3.3-.1-2.3-2.4-3.7-3.7-4.6-.4-.2-.8-.5-1.2-.7-1.7-.9-2.8-1.6-3.2-3.2-.7-3-1.2-9.7-1.1-10.6 0 0 1.2-9.1.5-14.7 0-.6.5-3.1 1-5.1 1.3-6.3 2.3-11.4 1.9-14-.4-1.2-1.4-2.6-3.6-2.6z"/><path class="st0" d="M350.3 240.5c-1.7-.5-3.1-1.9-3.4-3.7l-1.2-6.4.2-.1c.4-.2 10-5.8 14.4-4.7.5.1.8.3 1.2.6 3.4 2.7 7.6 8.5 6.6 10.6-.3.6-.5 1-1.3 1.5-.1.1-1 .2-1 .2-.3-.1-2.9-4.4-3.2-4.5-.1.7.8 5.7.5 5.8-3.8 1.3-8 1.2-10.2 1.2-.5 0-1.1-.1-1.6-.2l-1-.3z"/><path class="st0" d="M352.7 243.5c-.7 0-1.4-.1-2.1-.3l-1-.3c-2.6-.7-4.7-2.9-5.2-5.6l-1.5-8.1 1.7-1c2.6-1.5 11.3-6.3 16.3-5 .8.2 1.5.6 2.1 1 2.7 2.2 9.4 9.4 7.2 13.7v.1c-.4.9-.9 1.6-2.2 2.4-.4.2-.8.4-1.9.5l-.5.1-.3-.1c-.3.5-.7.9-1.4 1.1-3.7 1.3-7.7 1.3-10.1 1.3h-.9c-.1.1-.1.2-.2.2zm-1.8-5.4l1 .3c.3.1.6.1.9.1h.9c1.8 0 4.3 0 6.7-.6 0-.3-.1-.7-.1-.9-.3-2-.4-2.7-.3-3.3l.5-3.6 2.5 1.4c-.9-1.2-2.1-2.4-3.2-3.3 0 0-.1-.1-.2-.1-1.9-.5-6.9 1.4-11.2 3.7l.9 4.6c.2.8.8 1.5 1.6 1.7zM253.2 235.3s-.5 7.3-.1 8.7 3.2 3.5 8.6 3.5c3.6.1 4.8-1.6 4.8-1.6s1.1 1.3 1.9 1.4c.8 0 6.4-1.3 6.4-3.7 0-2.4-1-5.4-3.2-6.6-2.2-1.3-16.8-2-18.4-1.7z"/><path class="st0" d="M261.8 250h-.2c-6.5-.1-10.2-2.7-10.9-5.3-.4-1.5-.2-6 0-9.6l.1-2 2-.3c1.5-.2 16.9.2 20 2 3.1 1.8 4.4 5.7 4.4 8.8 0 .8-.3 2.1-1.5 3.3-2 1.9-6.2 3-7.5 2.9-.7 0-1.4-.3-2-.7-1 .5-2.5.9-4.4.9zm-6.4-6.8c.4.4 2.2 1.8 6.2 1.8 1.8 0 2.5-.5 2.8-.6l1.7-3.2 2.2 3.2.4.4c1.1-.2 2.9-.9 3.5-1.4-.1-1.8-.9-3.6-1.9-4.2-1.5-.7-10.5-1.3-14.7-1.4-.2 2.3-.3 4.6-.2 5.4zm9 1.3zm-9-1.4zM294.1 233s3.8 7 5.9 7.2c2.5.2 10.3-1.3 15.1-3 .8-.3 0-1.7.5-2 0 0 4.3 1.8 3.7-.3-1.3-4.6-5.7-7.7-7.3-6.3-1 .9-5.1-5.9-17.9 4.4z"/><path class="st0" d="M300.6 242.7h-.7c-2.3-.2-4.9-3-7.9-8.5l-1-1.8 1.6-1.3c9.7-7.9 15.4-6.9 19.2-5.1.7-.2 1.7-.3 2.9 0 2.7.8 6 3.9 7.2 8.2.4 1.3 0 2.5-.9 3.4-.8.7-2 1-3.4.8-.4.7-1.1 1-1.5 1.2-4.5 1.5-12 3.1-15.5 3.1zm0-4.9zm-.1-.1c2.1.1 8-1.1 12.5-2.4.2-1.4 1-2 1.7-2.3l.8-.3c-.8-1-1.7-1.6-2.2-1.8-1.3.8-2.7.1-3.5-.3-1.6-.8-5-2.3-12.4 3.1 1.2 1.9 2.5 3.5 3.1 4z"/><path class="st2" d="M296.8 234.3c-.7 0-1.2-.2-1.6-.5l-.8-.7c-.8-.6-1-1.6-1.1-2.3 0-.1-3.9-18.4-3.9-18.4-.3-1.6-.9-3.2-1.6-4.6l-5.1-10.4-2.6-10.3 7.1-12.5 13.3-10.3.5.2c15.7 4.9 15.7 5.4 15.6 6.3 0 .4-.3.9-.9 1-1.3.2-3.4 2.2-3.5 2.8-1.2 6.6-9.3 15.2-14.2 20.3-1.4 1.5-2.9 3-3.3 3.6 5.2 17.6 12.5 22.4 16.5 25 .3.2.6.4.8.5 1.9 1.3 2.8 2.5 2.9 3.6 0 1-.6 1.5-.7 1.6l-.2.2h-.3c-5.5.7-12.5 3.2-15.2 4.3-.5.5-1.1.6-1.7.6z"/><path class="st0" d="M300.7 165.5s16.4 5.1 14.8 5.4c-1.6.3-4.1 2.4-4.3 3.7-1.6 9.1-17.9 22.9-17.5 24 5.7 19.5 14.2 24 17.8 26.4 3.6 2.5 2.1 3.7 2.1 3.7-5.7.7-12.7 3.3-15.4 4.3-.4.2-.9.3-1.4.3-.4 0-.8-.1-1-.3l-.8-.7c-.6-.5-.7-1.4-.9-2.1l-3.8-18c-.4-1.7-.9-3.3-1.7-4.9l-5-10.3-2.5-9.8 6.8-12 12.8-9.7m-.5-2.2l-.8.6-12.7 9.8-.3.2-.2.3-6.8 12-.4.7.2.8 2.5 9.8.1.2.1.2 5 10.3c.7 1.4 1.2 2.9 1.5 4.4l3.8 18c0 .1.1.2.1.3.2.8.4 2.1 1.5 2.9l.8.7c.6.5 1.4.7 2.2.7.9 0 1.7-.3 2.1-.4 2.7-1.1 9.5-3.6 14.9-4.2l.6-.1.4-.4c.5-.4 1.1-1.3 1.1-2.4-.1-1.5-1.1-3-3.3-4.4-.3-.2-.5-.4-.8-.6-3.8-2.5-10.9-7.2-16-24 .6-.7 1.8-2 2.9-3.1 4.9-5.2 13.2-13.9 14.4-20.7.3-.6 1.9-2 2.7-2.1 1-.2 1.7-1 1.7-1.9.1-1.7-1.5-2.3-3.6-3.1-1.3-.5-3-1.1-5.2-1.8-3.7-1.2-7.5-2.4-7.5-2.4l-1-.3z"/><path class="st2" d="M261.8 240.6c-2 0-4-.2-5.8-.7l-.3-.1c-1.7-.5-3-1.7-3.6-3.4-.7-1.8-.5-3.9.5-5.4 6.1-9 8-23.7 7.7-26.5-.3-4.1.7-7.2 3.1-9.3 1.2-1.1 1.9-2.3 3.3-4.9.8-1.5 1.8-3.4 3.3-5.9 3.9-6.7 4.8-13.3 3.5-16.1-.9-2.1-2.7-4.9-4-6.8-1.2-1.8-2-3.7-2.4-5.7-1.1-6 1-9.5 2.4-12.1.4-.6.7-1.2 1-1.8 1.8-3.9 19.2-17.3 46.6-19.8 24.8-2.2 30.7-11.4 34.3-16.9 0 0 .5-.7.7-1 2.9-4.4.9-13.5-.1-16.6-.5-1.4-4.2-8.1-6.6-12.3-.1-.2-.2-.5-.2-.8 0-1.2.5-1.9.9-2.2.4-.3.9-.5 1.5-.5.2 0 .5 0 .8.1 1.9.5 4.4 3 5.1 4 1 .9 11.6 6.5 15.2 7.4.2 0 .3.1.3.1.3-.1.9-.2 1.5-.3 2.3-.5 5.7-1.3 8.2-1.3.7 0 1.3.1 1.8.2 1.5.4 2.3 1.4 2.3 2.7-.1 2.3-.2 7 3.3 9.9 7.2 6 11 12.5 11.2 19.5.2 8.1-4.5 14.4-6.7 16.9l4.4 5.6c.3.4.4 1 .3 1.5-.1.3-7.4 27.8-30.3 39.9-1.8 1-5.1 8.9-4.9 14.4.3 7.7-2.1 12.8-2.8 14.2-.3 7.6 1.9 12 2.8 12.5 1.4.8 4.1 2.9 4.2 5.5 0 .8-.3 2.4-2.3 3.5-7.6 4.3-11.6 5.3-15.5 5.5h-.2c-.3 0-.7 0-1-.1-3.7-1-3.4-6.4-2.8-9.5.1-.5.2-1.2.4-2 .7-3.9 2.2-12 2-14.9-.3-3.6 1.5-10.3 2.1-12.6l.1-.5c.3-1.5-.7-12-1.7-14.3-2.2.7-4.7 1-7.5 1-3.9 0-8.4-.7-13.4-2-7.8-2-14.9-5.1-17.9-6.4l-.2-.1c-.2-.1-.4-.1-.6-.2-.2-.1-.4-.1-.6-.1-1.3 0-2.3 1.4-3.4 3.6l-.2.3c-8.3 16.6-19.1 21.6-23.2 23.5-1.9.9-6.8 12.9-8.4 23.3-.8 5.7 0 6.8.1 6.8 4.5 4.1 3 8.3 3 8.5-.2.4-.5.8-1 1-3.5 1-6.9 1.7-10.3 1.7z"/><path class="st0" d="M347.4 72.6c.2 0 .3 0 .5.1 1.6.4 4 2.8 4.6 3.6.8 1 12 6.8 15.7 7.8.4.1.6.1.6.1.3 0 .9-.2 1.7-.4 2.2-.5 5.6-1.3 8-1.3.6 0 1.2 0 1.6.2 1.4.4 1.6 1.2 1.5 1.7-.1 2.4-.2 7.5 3.7 10.7 7 5.8 10.6 12.1 10.8 18.7.3 8.6-5.3 15.1-7 16.8l4.9 6.3c.1.2.2.4.1.6-.1.3-7.3 27.4-29.8 39.3-2.3 1.2-5.6 9.7-5.4 15.3.3 7.9-2.3 13-2.8 13.9-.3 7.5 1.8 12.8 3.4 13.7 1.4.8 3.6 2.6 3.6 4.6 0 .7-.3 1.8-1.8 2.6-7.4 4.2-11.3 5.1-15.1 5.3h-.2c-.3 0-.5 0-.7-.1-3-.8-2.5-6.1-2.1-8.4.1-.5.2-1.2.4-2 .8-4.2 2.2-12.2 2-15.1-.3-3.4 1.5-10.1 2.1-12.2l.1-.5c.4-1.9-.8-15.1-2.3-15.7-2.3.8-4.9 1.2-7.9 1.2-3.8 0-8.2-.6-13.2-1.9-7.7-2-14.8-5.1-17.8-6.4l-.2-.1c-.2-.1-.5-.2-.7-.2-.3-.1-.6-.1-.8-.1-2 0-3.3 2.1-4.3 4.1l-.2.3c-8.2 16.3-18.8 21.2-22.7 23.1-2.6 1.2-7.5 14.4-8.9 24-.9 6 0 7.4.4 7.7 4.1 3.7 2.8 7.2 2.7 7.4-.1.2-.2.3-.4.4-3.4 1.3-6.7 2-10 2-1.9 0-3.8-.2-5.6-.7l-.3-.1c-1.3-.4-2.4-1.4-3-2.8-.6-1.5-.4-3.3.4-4.5 6.2-9.2 8.1-24.3 7.9-27.1-.3-3.8.6-6.6 2.7-8.5 1.4-1.2 2.1-2.6 3.5-5.2.8-1.5 1.8-3.4 3.3-5.9 4.1-7.1 4.9-13.9 3.6-17-.9-2.1-2.8-5-4.1-7-1.2-1.7-1.9-3.5-2.2-5.3-1-5.7.8-8.9 2.3-11.4.4-.6.7-1.3 1-1.9 1.7-3.8 18.8-16.8 45.8-19.2 25.2-2.3 31.4-11.7 35-17.4.2-.3.4-.7.7-1 3.8-5.7 0-17.4 0-17.5-.5-1.6-4.6-8.9-6.7-12.5-.1-.1-.1-.2-.1-.3 0-.7.2-1.1.5-1.4.5-.3.8-.4 1.2-.4m0-2c-.8 0-1.5.2-2.1.7-.6.5-1.3 1.4-1.3 3.1 0 .4.1.9.4 1.2 2.9 5 6.2 11 6.6 12.1 1 3 2.9 11.7.2 15.7l-.6.9v.1c-3.5 5.3-9.3 14.3-33.6 16.5-27.5 2.5-45.3 15.7-47.4 20.4-.2.5-.6 1.1-.9 1.7-1.5 2.7-3.7 6.4-2.5 12.8.4 2.1 1.2 4.2 2.5 6.1 1.3 1.9 3.1 4.7 3.9 6.7 1 2.2.5 8.4-3.5 15.2-1.5 2.5-2.5 4.4-3.3 5.9-1.3 2.5-2 3.7-3.1 4.7-2.6 2.3-3.7 5.7-3.4 10.1.2 2.6-1.7 17.2-7.6 25.9-1.2 1.8-1.4 4.2-.6 6.3.8 2 2.3 3.5 4.3 4.1l.3.1c2 .5 4 .8 6.1.8 3.5 0 7.1-.7 10.7-2.1.7-.3 1.3-.8 1.5-1.5.7-1.8.8-5.8-3.1-9.4-.1-.3-.5-1.7.1-6 1.5-10 6.2-21.3 7.8-22.5 4.2-2 15.2-7.1 23.6-24l.2-.3c.7-1.4 1.6-3 2.5-3h.3c.1 0 .3.1.4.1l.2.1c3.1 1.3 10.2 4.4 18.1 6.5 5.1 1.3 9.7 2 13.7 2 2.5 0 4.8-.3 6.9-.8.8 3.1 1.6 11.3 1.3 12.9l-.1.4c-1 3.9-2.4 9.5-2.1 12.9.2 2.7-1.3 10.8-2 14.6-.2.9-.3 1.6-.4 2.1-1.4 8.1 1.6 10.2 3.6 10.7.4.1.8.2 1.2.2h.3c4.1-.2 8.2-1.2 16-5.6 2.5-1.4 2.8-3.4 2.8-4.4 0-3-2.9-5.4-4.6-6.3-.8-.7-2.6-4.9-2.4-11.4.9-1.7 3.1-6.9 2.8-14.5-.2-5.5 3.1-12.7 4.4-13.5 23.2-12.3 30.7-40.3 30.8-40.6.2-.8 0-1.7-.5-2.3l-3.9-5c2.4-2.9 6.6-9 6.4-16.9-.2-7.3-4.1-14.1-11.5-20.2-3.2-2.6-3-6.9-3-9.1 0-1.4-.7-3.1-3-3.7-.6-.2-1.3-.2-2.1-.2-2.6 0-6.1.8-8.5 1.3-.5.1-1 .2-1.3.3h-.1c-3.3-.9-13.3-6-14.7-7.1-.9-1.1-3.4-3.7-5.6-4.3-.5-.5-.8-.5-1.1-.5zM348.2 185.2v.1-.1z"/><path class="st1" d="M386.3 159.7l-.1-.1c-1.4-1.3-4.6-12.6-5.7-16.7-1.6 2.6-4.1 2.7-4.6 2.7H375.1l.3-.7c1.1-2.5 1.2-8 1.2-10.5-1.2 1.3-2.3 2-3.2 2-.7 0-1.1-.4-1.1-.5l-.1-.1v-.2c0-1.8-.3-9-.5-11.8-2 1.9-3.6 2.2-4.4 2.2-.3 0-.5-.1-.6-.1l-.5-.1.1-.5c.5-1.9.2-6.4 0-8.3-1.6 1-3.7 1.6-3.8 1.6l-.7.2v-.7c.1-2 .1-7.4-1.3-9.3-1.5.9-7.6 4.1-13.9 4.3h-1.3l.9-.9c2.3-2.3 3.8-4.5 5-6.4.2-.3.4-.7.6-1 3.9-5.8.1-17.5 0-17.7-.3-.9-1.8-3.8-4.3-8.2l-.6-1 1.1.3 18.6 4.5 10.5 1 4 .9.5 3.6c11.4 7.6 22.6 27.2 22.3 28.2l-.1.3-5.6.2c.1 2.4 2 10 2.7 12.9l.1.4-.4.2c-.3.1-.7.2-1.2.2-1 0-2.2-.2-3-.4.4 7.8 3.2 10.5 4.1 11.4.3.3.5.5.4.9-.1.2-.2.3-.6.3h-.2c-1.3-.1-4.5-.2-5.6-.2-3.4 16.5-7.9 17-8.4 17h.2z"/><path class="st0" d="M348.2 78.7l18.6 4.5 10.5 1 3.6.8.5 3.5c12.1 7.8 22.4 27.8 22.3 27.8l-5.7.2c-.2 2.2 2.8 13.5 2.8 13.5-.2.1-.6.1-1 .1-1.4 0-3.5-.5-3.5-.5.4 11.2 5.5 12.8 4.4 12.8h-.1c-1.6-.1-6.1-.2-6.1-.2-3.5 17-7.9 17-8 17-1.6-1.5-5.9-17.8-5.9-17.8-1.3 3.5-4.2 3.7-4.7 3.7h-.1c1.4-3.4 1.2-12 1.2-12-1.9 2.3-3 2.8-3.7 2.8-.5 0-.7-.3-.7-.3.1-2.3-.5-13-.5-13-2.3 2.5-4 2.8-4.8 2.8h-.4c.7-2.6 0-9.3 0-9.3-1.5 1.2-4.4 2-4.4 2s.4-7.9-1.7-9.9c0 0-6.9 4.3-14 4.4 2.8-2.7 4.3-5.4 5.7-7.4 3.6-5.4.8-16.1.1-18.1-.5-1.4-2.7-5.3-4.4-8.4m-2-1.5l1.1 2c3.3 5.8 4.1 7.6 4.2 8.1 1 3 3.2 12.5 0 17.2-.2.3-.4.6-.6 1-1.2 1.8-2.6 4-4.9 6.3l-1.8 1.8 2.5-.1c6-.1 11.7-3 13.7-4.1.9 1.8 1.1 5.9 1 8.6l-.1 1.4 1.3-.4c.1 0 1.8-.5 3.3-1.3.2 2.3.3 5.8-.1 7.3l-.3.9.9.3c.1 0 .3.1.7.1.8 0 2.1-.2 3.9-1.6.2 3.2.5 9.2.4 10.8v.3l.2.3c.2.3.8.7 1.5.7.8 0 1.7-.4 2.7-1.3-.1 2.7-.3 7.1-1.2 9.1l-.6 1.3 1.4.1h.1c.5 0 2.7-.1 4.4-2.1 1.4 5.2 4.2 14.7 5.6 16l.3.3h.4c.9 0 5.3-.8 8.8-17 1.4 0 4 .1 5.2.2h.2c.7 0 1-.5 1.1-.7.3-.7-.2-1.1-.5-1.4-.9-.9-3.4-3.3-3.9-10.4.7.1 1.6.2 2.4.2.6 0 1-.1 1.3-.2l.8-.3-.2-.9c-1-3.7-2.4-9.8-2.7-12.3l4.7-.2h.7l.2-.7c.1-.4.2-.6-1.9-4.1-1-1.8-2.7-4.6-4.9-7.8-3.7-5.4-9.3-12.6-15.6-16.8l-.4-3.1-.1-.7-.7-.1-3.6-.8h-.2l-10.5-1c-1-.2-12.6-3-18.5-4.4l-1.7-.5zM303.2 171.8s0-.1.1-.2.2-.3.3-.5c.3-.4.7-1 1.1-1.8.2-.4.5-.8.7-1.3.2-.5.5-.9.7-1.4.2-.5.4-1 .6-1.6.2-.5.3-1.1.5-1.7.1-.6.3-1.1.4-1.7.1-.6.2-1.1.2-1.7 0-.5.1-1.1 0-1.6s-.1-1-.2-1.4l-.3-1.2-.3-.9c-.2-.5-.3-.8-.3-.8 0-.1 0-.2.1-.2s.2 0 .2.1c0 0 .1.3.3.8.1.2.3.5.4.9l.3 1.2c.1.4.2.9.3 1.5.1.5.1 1.1.1 1.6 0 .6-.1 1.2-.1 1.8l-.3 1.8c-.2.6-.3 1.2-.4 1.8-.2.6-.3 1.1-.6 1.7l-.6 1.5c-.2.5-.4.9-.6 1.3-.4.8-.8 1.5-1.1 1.9-.1.2-.3.4-.3.5-.1.1-.1.2-.1.2-.2.3-.6.4-.9.2-.4 0-.4-.4-.2-.8 0 .1 0 .1 0 0zM344.5 179.3s-.6-1.2-1.3-3.1c-.4-.9-.8-2.1-1.1-3.3-.4-1.2-.7-2.5-1.1-3.8-.2-.7-.3-1.3-.4-2-.1-.7-.2-1.3-.3-1.9 0-.6-.1-1.2-.1-1.8v-1.6c0-.5.1-1 .1-1.4 0-.4.1-.8.2-1.1.1-.6.2-.9.2-.9 0-.1.1-.1.1-.1.1 0 .1.1.1.1s0 .3-.1.9c0 .3-.1.6-.1 1v1.4c0 .5.1 1 .1 1.6.1.6.2 1.2.2 1.8.1.6.2 1.2.4 1.9.2.6.3 1.3.5 1.9.4 1.3.8 2.5 1.2 3.7.4 1.2.9 2.2 1.3 3.1.8 1.8 1.4 3 1.4 3 .2.3.1.7-.3.9-.4.2-.8 0-1-.3zM362.8 179.5s.5-1.3 1-3.2c.1-.5.3-1 .4-1.6.1-.6.3-1.2.4-1.8.3-1.2.5-2.6.7-3.9.1-.7.2-1.4.2-2 .1-.7.1-1.3.1-2v-1.8c0-.6-.1-1.1-.1-1.6-.1-.5-.2-1-.2-1.4-.1-.4-.2-.8-.3-1l-.3-.9c0-.1 0-.1.1-.1s.1 0 .1.1l.3.9c.1.3.2.6.3 1 .1.4.2.9.3 1.4.1.5.1 1.1.2 1.7 0 .6.1 1.2.1 1.9v2c0 .7-.1 1.4-.1 2.1-.1 1.4-.3 2.8-.5 4-.1.6-.2 1.3-.3 1.8-.1.6-.2 1.1-.4 1.6-.5 2-.9 3.4-.9 3.4-.1.4-.5.6-.8.4s-.4-.6-.3-1zM342 121.9l-.5 1c-.3.7-.7 1.6-1.2 2.8-.2.6-.4 1.2-.6 1.9-.2.7-.3 1.4-.4 2.2-.1.8-.1 1.5.1 2.3v.3l.1.3c.1.2.1.4.2.6.1.4.3.7.4 1.1.3.8.7 1.5 1.1 2.3.4.8.7 1.5 1 2.3.1.4.3.8.4 1.1.1.4.2.8.3 1.1.1.4.1.7.2 1.1 0 .3.1.7.1 1v1.8c0 .5 0 1-.1 1.3-.1.7-.1 1.2-.1 1.2v-1.2c0-.4 0-.8-.1-1.3 0-.5-.1-1.1-.2-1.7-.1-.6-.2-1.3-.4-2s-.4-1.4-.7-2.1c-.6-1.4-1.5-2.9-2.2-4.5-.2-.4-.3-.8-.5-1.3-.1-.2-.1-.4-.2-.6l-.1-.3c0-.1 0-.2-.1-.3-.2-.9-.1-1.8 0-2.6s.3-1.6.6-2.3c.2-.7.5-1.3.8-1.9.3-.6.6-1.1.8-1.5.3-.4.5-.8.7-1.1.3-.7.6-1 .6-1z"/><path class="st2" d="M395.5 102.6c-.3 0-.7-.1-1.2-.3-1.4-.6-2.1-2.3-2.5-4.1-.2.1-.4.2-.7.2-.9 0-1.4-1-1.5-1.3-.5-1.1-.5-3.5-.4-5.2-.5-.1-1-.5-1.1-1.9-.1-1.8 1.1-4.3 1.4-4.8l1.1-3.2 1 .6c1.7.9 7.2 4.1 7.5 6.5.1.8.7 2.4 1.3 3.6.9 2 1.3 2.9.8 3.7-.2.3-.6.5-1 .5-.5 0-1-.2-1.6-.6.3.7.6 1.3.9 1.9.6 1.3 1.1 2.1.7 2.9-.2.4-.5.6-.8.7-.1 0-.3.1-.4.1-.6 0-1.4-.5-2.1-1.3.1.6.1 1-.2 1.5-.3.3-.7.5-1.2.5z"/><path class="st0" d="M391.2 83.4s6.7 3.6 6.9 5.8c.2 2.1 3 6.7 2.1 6.7-.9 0-3-1.8-3-1.8-.2 2.9 3.1 6.5 1.9 6.9h-.1c-1.2 0-4.1-4.4-4.1-4.4-.1 2.5 1.7 5.1.6 5.1-.2 0-.4-.1-.8-.2-2.5-1.1-2.1-8-2.1-8s-.3 1.4-.6 2.5c-.2.7-.5 1.5-.8 1.5-.2 0-.4-.2-.6-.7-.7-1.5-.1-6.6-.1-6.6-.3.4-.6.8-.9.8-.2 0-.4-.3-.4-1-.1-1.7 1.3-4.4 1.3-4.4l.7-2.2m-1.1-2.9l-.8 2.2-.7 2c-.4.8-1.6 3.3-1.5 5.3.1 1.3.5 2 1.1 2.4-.1 1.8 0 3.9.5 5.1.7 1.5 1.7 1.8 2.4 1.8.5 1.7 1.3 3.2 2.8 3.8.6.3 1.1.4 1.6.4.8 0 1.5-.3 1.9-.9 0-.1.1-.1.1-.2.7.4 1.1.4 1.4.4.2 0 .5 0 .7-.1.7-.2 1.2-.7 1.5-1.3.5-1.2 0-2.3-.7-3.7.7-.1 1.2-.4 1.6-1 .8-1.2.3-2.4-.7-4.6-.4-1-1.1-2.6-1.2-3.3-.3-2.6-4.5-5.4-8-7.3l-2-1z"/><path class="st1" d="M265.7 87c-.2 0-.3-.1-.3-.1-11.3-10.5-12.6-18.3-13.3-22.1-.2-.9-.3-1.7-.5-1.9-.8-.7-.7-2.1-.6-3.3.1-1 .1-2-.3-2.4-.7-.6-.3-1.7.1-2.8.4-1.1.8-2.3.4-3.3-.8-2.2.4-4.3 1.1-5.4.2-.2.1-.5.1-.9-.1-.6-.2-1.5.4-2.6l.1-.2c0-.1.1-.2.3-.7.1-.3.4-.7.8-1.2.8-1.1 2.1-2.8 2.3-4.5.2-2.5 2.1-4.2 3.4-5.4l.4-.4c1.3-1.2 3-4.4 3.6-6.4.7-2.2 3.1-3.5 4.2-3.6.9-.1 2.1-.3 3.3-1.2.9-.7 1.2-2.8 1.2-3.6v-.1l.1-.1c3.4-3.1 5.5-3 7.2-3 .6 0 1.1 0 1.6-.1 2-.4 4.3-4.2 4.4-4.2v-.1h.1c2.6-1.8 4.1-1.9 5.6-1.5.3.1.6.2.8.3.3.1.6.2.8.3.6.2 1.1.2 1.6.2 1.6 0 2.5-.7 3.6-1.5.9-.7 2-1.5 3.7-2.1 1.5-.5 2.8-.6 4.1-.2l1.5.6c.5.2.9.4 1.4.5.3.1.5.1.7.2 2.4.4 6.1-.7 6.2-.8 2.6-.7 4.2-.8 5.2-.6.9.3 1.2.9 1.4 1.5.3.7.5 1.3 1.8 1.7.2.1.4.1.7.1 2.2.4 4.1.4 5.8.4 2 0 3.8.1 5.6.6.2.1.4.1.5.2 1.7.6 2.9 2.4 3.9 3.9.8 1.3 1.6 2.5 2.5 2.8.3.1.5.1.8 0 1.3-.4 2.6-.3 3.9 0 1.4.4 2.7 1.2 3.6 2.4.6.7 1 2 1.4 3.3.7 1.9 1.4 4.1 2.6 4.5.1 0 .3.1.4 0 1.3-.1 2.4 0 3.2.2 2 .6 2.3 2 2.6 3.3.1.5.2 1 .5 1.4 1 1.8 2.3 2.8 2.4 2.8 4.3 3.2 3.8 6.1 3.8 6.2v.1c-4.4 7.4-12.3 7-12.4 7h-.1l.1-.2c-8.2-11.2-19.4-19.2-32.3-22.9-10.7-3.1-22.3-3.3-33.4-.6-21.1 5.2-30.6 24.2-30.7 24.4-10.5 25.6 7 39.3 7.2 39.5l.1.1v.1c.2.6.2 1.1 0 1.4-.2 0-.5.2-1.2 0z"/><path class="st0" d="M266.2 87.8c-.2 0-.4 0-.7-.1-.2-.1-.3-.1-.3-.1l-.2-.2c-11.5-10.8-12.9-18.7-13.5-22.5-.1-.6-.2-1.3-.3-1.5-1-.9-.9-2.5-.8-3.9 0-.5.1-1.5 0-1.8-1.1-.9-.6-2.4-.1-3.6.3-1 .7-2 .4-2.8-.9-2.5.4-4.9 1.2-6.1 0 0 0-.3-.1-.4-.1-.7-.2-1.7.5-3.1v-.1c0-.1.1-.3.3-.7.2-.4.5-.8.9-1.4.8-1 2-2.6 2.1-4.2.3-2.8 2.3-4.7 3.6-5.9l.4-.4c1.2-1.1 2.8-4.2 3.4-6 .8-2.5 3.5-4.1 4.8-4.2.9-.1 1.8-.2 2.9-1.1.6-.4.9-2 .9-3v-.5l.3-.3c3.6-3.3 6-3.2 7.7-3.2.5 0 1 0 1.5-.1 1.3-.3 3-2.5 3.9-3.9l.1-.1.2-.1c2.5-1.7 4.3-2.2 6.3-1.6l.9.3c.3.1.5.2.8.3.5.1.9.2 1.3.2 1.4 0 2.1-.6 3.2-1.4 1-.7 2.1-1.6 3.9-2.2 1.7-.6 3.1-.7 4.6-.2.6.2 1.1.4 1.6.6.4.2.9.4 1.3.5.2.1.4.1.6.1 2.2.4 5.8-.7 5.8-.7 2.8-.7 4.5-.9 5.6-.6 1.3.4 1.6 1.3 1.9 1.9.3.6.4 1 1.3 1.2.2.1.4.1.6.1 2.1.3 4 .4 5.7.4 2 0 3.9.1 5.8.6.2.1.4.1.6.2 2 .7 3.2 2.6 4.3 4.2.7 1.1 1.5 2.3 2.1 2.4h.4c1.4-.4 2.9-.4 4.3 0 1.6.5 3 1.4 4 2.6.6.8 1.1 2.1 1.6 3.5.5 1.5 1.3 3.8 2.1 4h.2c1.4-.1 2.5 0 3.5.2 2.4.7 2.8 2.5 3.1 3.8.1.5.2.9.4 1.2.9 1.6 2.1 2.6 2.2 2.6 4.7 3.4 4.1 6.8 4.1 7l-.1.3c-4.6 7.8-13 7.4-13.1 7.4h-.5l-.3-.4c-8.1-11.1-19.2-18.9-31.9-22.6-10.6-3.1-22-3.3-33-.6-20.7 5.1-30.1 23.8-30.2 24-10.3 24.9 6.8 38.4 7 38.6l.2.1.2.3c.4 1 .3 1.7-.2 2.2-.3.5-.7.8-1.3.8zm-.2-1.5c.2.1.3 0 .3 0s0-.1-.1-.5c-1.9-1.6-17.5-15.5-7.3-40.3.1-.2 9.7-19.5 31.2-24.8 11.2-2.8 22.9-2.6 33.8.6 13 3.8 24.2 11.7 32.6 23 1.2 0 7.7-.3 11.4-6.5 0-.6 0-2.9-3.5-5.4 0 0-1.5-1.2-2.6-3.1-.3-.5-.4-1.1-.5-1.6-.3-1.2-.5-2.3-2.1-2.7-.7-.2-1.7-.3-2.9-.2-.2 0-.5 0-.7-.1-1.6-.5-2.3-2.8-3.1-5-.4-1.2-.8-2.5-1.3-3.1-.8-1-1.9-1.7-3.2-2.1-1.1-.3-2.3-.3-3.5 0-.4.1-.8.1-1.2 0-1.2-.3-2-1.7-3-3.1-1-1.5-2-3.1-3.5-3.6-.2-.1-.3-.1-.5-.2-1.7-.5-3.5-.5-5.5-.6-1.7 0-3.7-.1-5.9-.4-.3 0-.5-.1-.8-.2-1.6-.5-2-1.4-2.3-2.1-.2-.6-.4-.9-.9-1-.9-.2-2.4 0-4.9.7-.1 0-3.9 1.2-6.5.8-.3 0-.5-.1-.8-.2-.5-.2-1.1-.4-1.5-.6-.4-.2-.9-.4-1.4-.5-1.2-.3-2.3-.3-3.7.2-1.6.6-2.6 1.3-3.5 2-1.2.9-2.2 1.6-4 1.7-.6 0-1.2-.1-1.8-.2l-.9-.3c-.3-.1-.5-.2-.8-.3-1.3-.4-2.5-.3-4.9 1.3-.5.7-2.6 4-4.8 4.5-.6.1-1.2.1-1.8.1-1.6 0-3.4-.1-6.5 2.7 0 .7-.3 3-1.5 3.9-1.4 1.1-2.7 1.3-3.7 1.4-.8.1-2.9 1.2-3.5 3.1-.6 2.1-2.3 5.3-3.8 6.7l-.4.3c-1.4 1.2-3 2.7-3.2 5-.2 2-1.5 3.8-2.4 4.9-.3.4-.6.8-.7 1.1-.2.4-.2.5-.2.6 0 .1 0 .1-.1.3v.1c-.5 1-.4 1.6-.3 2.2.1.5.1 1-.2 1.4-.7 1-1.7 2.9-1 4.7.4 1.2 0 2.6-.4 3.8-.3.9-.6 1.7-.3 2 .7.6.6 1.8.5 3-.1 1.1-.2 2.2.4 2.7.4.4.5 1 .7 2.3.6 3.7 2 11.2 13 21.6-.1-.1-.1-.1 0 0z"/><g><path class="st2" d="M360.4 89.5h-.9c-.6 0-1.1-.1-1.7-.3-6.8-2-14.6-13.7-15.5-15l-.1-.1c-.1-.1-6.2-12.6 4.8-22.5l6.1-6.1 4.4-3.6-2.1-1.7c-.4-.3-.6-.8-.6-1.3s.2-1 .6-1.3c.3-.2 6.9-5.4 15.8-5.4 2.1 0 4.3.3 6.3.9l1.8.6c.7.3 1.1 1 1 1.7-.1.8-.7 1.3-1.5 1.4-.2 0-2.8.2-5.5.9.1 0 .2.1.3.1 2.9.8 6.8 2.3 9.1 4.4.6.5.7 1.3.3 2-.3.5-.8.8-1.4.8-.2 0-.3 0-.5-.1-.1 0-.4-.1-.7-.2l-1.2-.3c1.7 1.4 3.4 3 4.6 4.7.5.6.4 1.5-.1 2.1-.3.3-.7.5-1.2.5-.2 0-.3 0-.5-.1-.1 0-.3-.1-.4-.2-.1 0-1.2-.8-2.6-1.4 0 .3.1.6.1.9.1.9.6 2 1.4 2.5.5.3 2.7 1.4 5.1 2.7 6 3.1 15 7.7 17.8 9.8 3.9 3 5.7 6.2 5.7 10.2v1c0 3-2.5 4.6-5 5.2-.6 1.5-2.4 3.2-5.2 4.2-.7.2-1.4.3-2.2.3-1 0-2.2-.2-3.4-.5l-.3-.1c-2-.6-4.5-1.3-7.2-2.9-.1-.1-.3-.1-.6-.2s-.6-.1-1.1-.1c-2.8 0-7.6 1.6-10.1 2.5-.8.3-1.4.5-1.8.6-.4.1-1.1.5-1.8.8-2 1.2-5.2 2.6-10 2.6z"/><path class="st0" d="M371.3 33.2c1.9 0 3.9.2 6 .9.6.2 1.2.4 1.7.6.3.1.4.4.4.7 0 .3-.3.5-.6.5-.1 0-5.6.5-9 2.1 1.2.2 2.7.6 3.6.9 2.8.8 6.5 2.2 8.6 4.2.2.2.3.5.1.8-.1.2-.3.3-.5.3h-.2s-.3-.1-.7-.2c-2.3-.7-4.3-1.1-5.8-1.3 2.2 1.5 6 4.2 8.1 7.2.2.2.2.6 0 .8-.1.1-.3.2-.5.2h-.2c-.1 0-.1 0-.2-.1 0 0-2.4-1.5-4.5-2.3.3.8.4 1.7.6 2.7.1 1.1.7 2.5 1.8 3.2.6.4 2.6 1.4 5.2 2.7 5.9 3 14.8 7.7 17.6 9.7 3.7 2.8 5.3 5.8 5.3 9.4v1.1c0 2.8-2.8 4-4.8 4.4v.1c-.3 1.1-1.7 3-4.7 4-.6.2-1.2.3-1.9.3-.9 0-2-.2-3.2-.5-2-.6-4.6-1.3-7.3-2.9-.2-.1-.5-.2-.8-.3-.4-.1-.8-.2-1.3-.2-3.8 0-10.6 2.7-12.2 3.1-.5.1-1.2.5-2 .9-2.1 1.1-5.1 2.4-9.5 2.4h-.8c-.5 0-1-.1-1.5-.3-6.5-1.9-14.6-14.1-14.9-14.6v-.1c-.1-.1-5.9-11.9 4.6-21.3l6.1-6.1h.1l5.3-4.3-3-2.4c-.1-.1-.2-.3-.2-.5s.1-.4.2-.5c.1-.4 6.5-5.3 15-5.3m0-2c-9.1 0-15.7 5-16.4 5.6-.6.5-1 1.2-1 2s.4 1.6 1 2.1l1.1.9-3.3 2.7-.2.2c-2.7 2.7-5.8 5.8-6 6.1-11.6 10.4-5.1 23.5-5 23.7 0 .1.1.2.1.2.9 1.4 8.9 13.4 16 15.4.7.2 1.3.3 2 .3h.9c5 0 8.4-1.5 10.5-2.6.6-.3 1.3-.7 1.6-.8.4-.1 1-.3 1.9-.6 2.5-.9 7.2-2.5 9.8-2.5.4 0 .7.1.8.1.2.1.3.1.3.1 2.8 1.7 5.4 2.4 7.5 3l.3.1c1.3.4 2.6.6 3.7.6.9 0 1.8-.1 2.6-.4 2.8-1 4.7-2.7 5.6-4.3 2.7-.8 5.4-2.7 5.3-6.1v-1c0-4.3-1.9-7.8-6.1-11-2.6-2-10-5.8-17.9-9.9-2.4-1.2-4.6-2.4-5.1-2.7-.2-.1-.3-.3-.5-.6.3.2.5.3.5.3.2.1.4.2.7.3.2.1.5.1.7.1.7 0 1.4-.3 1.9-.8.9-.9.9-2.3.2-3.3-.7-.9-1.4-1.7-2.2-2.5.6-.2 1.1-.6 1.5-1.2.6-1.1.4-2.4-.5-3.2-1.4-1.3-3.4-2.5-6.1-3.5.6-.1 1.2-.1 1.6-.2 1.2-.1 2.2-1 2.4-2.2.2-1.2-.5-2.4-1.7-2.8-.6-.2-1.3-.5-1.9-.6-2.2-.7-4.4-1-6.6-1z"/></g><path class="st0" d="M399.6 82.2c-1.3-.2-2.7-.7-3.7-1.6-.8-.7-1.3-1.7-1.4-2.8 0-.3.2-.5.4-.5.3 0 .5.2.5.4.1.9.4 1.6 1.1 2.1 2.2 1.9 7.1 1.6 7.2 1.6.3 0 .5.2.5.4 0 .3-.2.5-.4.5-.2.2-2.1.3-4.2-.1zM400.6 70.6l5.7 3.1c.2.1.2.3.1.4-.1.1-.3.2-.4.1l-6-2.6c-.3-.1-.5-.5-.3-.8.1-.2.5-.4.9-.2-.1 0-.1 0 0 0z"/><g><path class="st1" d="M371.6 60.8c-1.3 0-2.5-.2-3.3-.6-1.9-1-3.2-2.8-3.7-3.6 1-.6 3.7-2.1 6.4-2.1 1.3 0 2.4.4 3.4 1v.5c-.1.4-.1 1 .2 1.5.3.5.7 1.1-.5 2-.3.2-.4.5-.4.8-.1.3-.1.4-.3.4-.6.1-1.2.1-1.8.1z"/><path class="st0" d="M371 55.1c1.1 0 2.1.3 2.9.8v.1c-.1.5-.2 1.1.3 1.8.3.5.5.7-.4 1.3-.5.3-.6.8-.6 1.1-.5.1-1.1.1-1.6.1-1.3 0-2.4-.2-3-.5-1.5-.8-2.6-2.1-3.2-3 1.1-.6 3.4-1.7 5.6-1.7m0-1c-3.6 0-7 2.4-7 2.4s1.4 2.9 4.1 4.2c.9.4 2.2.6 3.5.6.6 0 1.3 0 1.9-.1.9-.1.6-1 1-1.3 1.6-1.1 1-2.1.6-2.7-.5-.7.2-1.6-.3-2-1.2-.8-2.5-1.1-3.8-1.1z"/></g><ellipse transform="rotate(-84.25 373.45 58.063)" class="st0" cx="373.5" cy="58.1" rx="3.1" ry="2.7"/><ellipse transform="rotate(-84.25 371.742 56.953)" class="st1" cx="371.7" cy="57" rx="1" ry=".9"/><path class="st0" d="M361.7 55.6l.3-.6c.2-.4.5-.9 1-1.5.3-.3.5-.6.9-.8.3-.3.7-.6 1.1-.8.4-.2.9-.5 1.3-.6l.7-.2c.2-.1.5-.1.7-.2.5-.1 1-.2 1.5-.2h1.4c.5 0 .9.1 1.4.1l1.2.3c.7.2 1.3.6 1.6.9.3.3.3.6.3.6s0-.1-.1-.1c-.1-.1-.2-.2-.4-.2-.2-.1-.4-.2-.7-.2-.3-.1-.6-.1-.9-.1h-1.1c-.4 0-.8 0-1.2.1-.4 0-.9.1-1.3.1-.4.1-.9.1-1.3.2s-.9.2-1.3.3c-.4.1-.8.3-1.2.4-.4.2-.8.3-1.1.5-.3.2-.7.4-1 .6-1.1.7-1.8 1.4-1.8 1.4z"/><g><path class="st1" d="M250.6 94.9c-.2-.1-.3-.1-.3-.1-12.1-12-13.4-20.6-14-24.7-.2-1-.3-1.8-.5-2.1-.8-.8-.7-2.3-.5-3.7.1-1.1.2-2.2-.2-2.6-.7-.7-.3-1.8.2-3.1.4-1.2.9-2.5.6-3.6-.8-2.4.6-4.7 1.4-5.9.2-.2.1-.5.1-1-.1-.7-.2-1.7.5-2.9 0-.1 0-.1.1-.2 0-.1.1-.3.4-.8.1-.3.5-.8.9-1.3 1-1.2 2.4-3 2.6-5 .3-2.8 2.4-4.6 3.9-5.9.2-.1.3-.3.5-.4 1.5-1.3 3.4-4.7 4.1-6.9.8-2.4 3.5-3.8 4.7-3.9 1 0 2.3-.2 3.7-1.3.8-.6 1-1.7 1.2-2.6.1-.5.2-1 .4-1.4 2.2-4.5 5.4-3.9 7.6-3.5.8.2 1.6.3 2.2.2 1.7-.3 2.9-1.9 3.9-3.2.4-.5.7-1 1.1-1.3 2-2 3.6-2.6 5.4-2.1.6.2 1.1.4 1.6.7.5.2 1.1.5 1.6.7.4.1.8.2 1.2.2 1.7 0 2.7-.8 3.9-1.8 1.1-.9 2.3-1.9 4.3-2.6 1.4-.4 2.6-.5 3.8-.1.8.2 1.6.7 2.3 1 .7.4 1.3.7 2.1 1 .1 0 .3.1.5.1 2.7.5 6.8-.6 6.8-.7 2.8-.6 4.6-.8 5.7-.5 1 .3 1.3 1 1.6 1.7.3.8.6 1.5 2.1 2 .2.1.4.1.6.1 2.4.5 4.5.6 6.4.6 2.1.1 4 .2 5.9.7l.9.3c1.9.7 3.1 2.7 4.2 4.5.9 1.5 1.7 2.8 2.8 3.1.3.1.6.1.9 0 1.3-.3 2.7-.3 4 .1 1.6.5 3.1 1.5 4.1 2.8.6.8 1 2.2 1.5 3.7.7 2.2 1.4 4.7 2.8 5.1.1 0 .3.1.5.1 1.4-.1 2.5 0 3.4.3 2.3.7 2.6 2.3 2.9 3.7.1.6.2 1.1.5 1.6 1 2 2.5 3.2 2.5 3.2 4.7 3.6 4.1 6.8 4 7v.1c-5.1 8-13.7 7.3-13.8 7.3h-.1l-.1-.1c-9.2-13.2-21.9-22.5-36.8-26.8-11.3-3.3-23.4-3.7-35.1-1.1-23.5 5.1-34.5 25.8-34.6 26-12.4 28 6.6 43.7 6.8 43.9l.1.1v.1c.2.7.2 1.2-.1 1.5-.7-.3-1-.2-1.7-.3z"/><path class="st0" d="M251.1 95.7c-.2 0-.4 0-.7-.1-.3-.1-.5-.2-.5-.2l-.2-.2c-12.3-12.2-13.6-21-14.2-25.2-.1-.7-.2-1.5-.3-1.7-1-1-.9-2.7-.7-4.2.1-.6.2-1.8 0-2-1.1-1-.5-2.5 0-3.9.4-1.1.8-2.3.6-3.1-.9-2.7.6-5.3 1.5-6.6 0 0 0-.3-.1-.5-.1-.8-.3-1.9.6-3.4.1-.2.2-.4.4-.9.2-.4.6-.9 1-1.5.9-1.1 2.3-2.8 2.5-4.6.4-3.1 2.6-5 4.2-6.3l.5-.4c1.4-1.2 3.3-4.6 3.9-6.6.9-2.7 4-4.3 5.4-4.4 1 0 2-.2 3.3-1.1.6-.4.7-1.3.9-2.1.1-.6.2-1.1.4-1.6 2.5-5 6.2-4.3 8.5-3.9.8.2 1.5.3 1.9.2 1.4-.2 2.5-1.8 3.4-3 .4-.5.8-1 1.2-1.4 2.2-2.2 4-2.9 6.1-2.3.6.2 1.2.5 1.7.7.5.2 1 .5 1.5.6.4.1.7.2 1 .2 1.4 0 2.2-.7 3.4-1.7 1.1-.9 2.4-2 4.5-2.7 1.5-.5 2.9-.5 4.2-.2.9.3 1.7.7 2.4 1.1.6.4 1.2.7 1.9.9.1 0 .3.1.4.1 2.5.5 6.5-.6 6.5-.6 3-.7 4.9-.8 6.1-.5 1.4.4 1.8 1.4 2.1 2.1.3.7.5 1.2 1.6 1.5.2 0 .3.1.5.1 2.3.4 4.4.5 6.3.6 2.1.1 4.1.2 6.1.8.3.1.7.2 1 .3 2.1.8 3.4 2.9 4.6 4.8.8 1.3 1.6 2.6 2.4 2.8h.5c1.5-.4 3-.3 4.4.1 1.8.5 3.4 1.6 4.5 3 .7.9 1.1 2.3 1.6 3.9.6 1.8 1.3 4.3 2.3 4.6h.2c1.5-.1 2.6 0 3.6.3 2.7.8 3.1 2.8 3.4 4.3.1.5.2 1 .4 1.4 1 1.8 2.3 3 2.3 3 5 3.8 4.4 7.3 4.3 7.7l-.1.3c-5.4 8.4-14.5 7.7-14.6 7.7h-.5l-.3-.4c-9.1-13.1-21.6-22.3-36.4-26.5-11.2-3.2-23.2-3.6-34.8-1.1-23.1 5.1-34 25.4-34.1 25.6-12.1 27.3 6.4 42.8 6.6 42.9l.2.1.1.3c.3 1.1.3 1.8-.2 2.3-.2.3-.6.6-1.2.6zm-.3-1.6c.2.1.4 0 .4 0s.1-.1-.1-.6c-2-1.7-18.9-17.6-6.9-44.7.1-.3 11.2-21.2 35.1-26.4 11.8-2.6 24.1-2.2 35.5 1.1 15 4.4 27.8 13.7 37 26.9 1.3 0 8.5-.1 12.9-6.9.1-.6.1-3.2-3.8-6.2 0 0-1.6-1.3-2.7-3.5-.3-.5-.4-1.2-.5-1.8-.3-1.4-.5-2.6-2.4-3.1-.8-.2-1.8-.3-3.1-.3-.2 0-.5 0-.7-.1-1.7-.5-2.5-3.1-3.3-5.6-.4-1.4-.9-2.8-1.4-3.4-.9-1.2-2.2-2.1-3.7-2.5-1.2-.4-2.4-.4-3.6-.1-.4.1-.9.1-1.3 0-1.3-.4-2.2-1.9-3.2-3.5-1-1.7-2.2-3.5-3.8-4.1l-.9-.3c-1.8-.5-3.7-.6-5.7-.7-1.9-.1-4-.2-6.5-.6-.2 0-.5-.1-.7-.2-1.9-.5-2.3-1.6-2.6-2.4-.3-.7-.4-1-1.1-1.2-.9-.3-2.6-.1-5.3.5 0 0-4.2 1.2-7.2.7-.2 0-.4-.1-.5-.1-.8-.2-1.5-.6-2.2-1-.7-.4-1.3-.8-2.1-1-1-.3-2.1-.3-3.4.1-1.9.6-3 1.5-4 2.4-1.3 1.1-2.4 2-4.4 2-.5 0-.9-.1-1.4-.2-.6-.2-1.2-.4-1.7-.7-.5-.2-1-.5-1.5-.6-1.5-.4-2.9.1-4.6 1.9-.3.3-.7.8-1 1.3-1.1 1.4-2.4 3.2-4.4 3.5-.7.1-1.6 0-2.5-.2-2.3-.5-4.9-1-6.8 3.1-.1.3-.2.7-.3 1.2-.2 1-.4 2.3-1.4 3.1-1.6 1.2-3 1.4-4.1 1.4-.9 0-3.3 1.3-4 3.3-.8 2.3-2.7 5.8-4.4 7.3l-.5.4c-1.5 1.3-3.4 2.9-3.6 5.4-.3 2.2-1.8 4.1-2.8 5.4-.4.5-.7.9-.8 1.2-.2.5-.3.7-.3.8-.1.1-.1.1-.1.2-.6 1-.5 1.8-.4 2.4.1.5.1 1.1-.2 1.5-.8 1.1-2 3.2-1.3 5.2.4 1.4-.1 2.8-.6 4.1-.4 1-.7 1.9-.4 2.3.7.7.6 1.9.5 3.3-.1 1.2-.2 2.5.3 3.1.4.4.5 1.1.7 2.5.6 4.1 1.8 12.5 13.7 24.2 0 .2.1.2.1.2z"/></g><path class="st2" d="M352.9 51.3c-3.8-5.1-15-7.8-19.7-7.6-4.2.2-7.5-2.2-7.5-2.2s-2.3 15.8 17.6 17.6c0 0 4.4.2 7.4-.7"/><path class="st0" d="M348.7 54.4c-1.1.1-2.1.1-2.4.1-3.8-.2-6.6-1.2-8.4-3.1.3.1.7.2 1 .2 5.8.9 8.8 1.9 10.3 2.7-.2.1-.4.1-.5.1z"/><g><path class="st0" d="M344.8 60.2c-7.3-.1-12.8-2.2-16.2-6.2-4.7-5.4-3.9-12.3-3.8-12.6l.2-1.6 1.4.9s3.1 2.1 6.9 2c4.1-.1 16.7-.6 22.1 10.9.2.5 0 1.1-.5 1.3-.5.2-1.1 0-1.3-.5-4.3-9.3-13.6-10-20.2-9.8-2.7.1-5.1-.8-6.6-1.5.1 2.2.6 6.2 3.4 9.5 3.1 3.5 8 5.4 14.7 5.5.6 0 1 .5 1 1-.1.6-.6 1.1-1.1 1.1z"/></g><g><path class="st1" d="M50.7 113.4h48.5c.3-5.6 3.5-10.6 8.3-12.8 6.1-2.8 13.9-.6 18.3 5.5 3.3-10.8 13.7-17.8 24.5-16.8 11.7 1.1 21 11.3 21 23.5h32"/><path class="st0" d="M100.6 114.9H50.7V112H98c.7-5.6 4.1-10.4 9-12.6 6.2-2.8 13.5-1.1 18.4 4 4.2-10 14.4-16.4 25.1-15.3 12 1.1 21.5 11.3 22.2 23.5h30.6v2.8h-33.4V113c0-11.3-8.7-21-19.7-22.1-10.3-1-19.9 5.6-23 15.8l-.8 2.8-1.7-2.4c-3.8-5.4-10.9-7.6-16.5-5-4.2 1.9-7.2 6.5-7.4 11.5l-.2 1.3z"/></g><g><path class="st1" d="M598.8 184.7h-35.6c-.2-3.5-2.1-6.5-5.1-7.9-3.8-1.7-8.6-.4-11.3 3.4-2-6.7-8.5-11-15.2-10.4-7.2.7-13 7-13 14.6h-19.8"/><path class="st0" d="M598.8 186.1h-37l-.1-1.3c-.2-2.9-1.8-5.6-4.3-6.7-3.2-1.5-7.3-.2-9.6 2.9l-1.7 2.4-.8-2.8c-1.8-6-7.6-10-13.7-9.4-6.5.6-11.7 6.4-11.7 13.2v1.4h-21.2V183h18.5c.7-7.6 6.7-13.8 14.2-14.5 6.6-.6 12.9 3.1 15.8 9.1 3.1-2.9 7.6-3.8 11.4-2 3.1 1.4 5.2 4.3 5.8 7.8h34.3v2.7z"/></g><g><path class="st0" d="M402.6 388.4c-.3 0-.6-.1-.9-.3l-9.8-7.6c-.4-.3-.6-.7-.5-1.1s.2-.9.6-1.1l8.3-6c.3-.2.7-.3 1.1-.2.4.1.7.3.9.6l1.9 2.6c.1.1.1.2.2.3l2.5 6.8c.2.4.1.9-.2 1.3l-2.8 4.1c-.2.3-.6.5-1 .6h-.3zm-7.5-9l7.1 5.5 1.6-2.3-2.1-6-1-1.3-5.6 4.1z"/><path class="st0" d="M438.3 390.8c-.1 0-.1 0 0 0l-35.8-2.4c-.5 0-1-.3-1.2-.8-.2-.5-.2-1 .1-1.4l2.4-3.5-2.1-6-1-1.3-7.1 5.1c-.6.5-1.5.3-2-.3s-.3-1.5.3-2l8.3-6 .3-.2.6-.3 28.6-4c.2 0 .5 0 .7.1l14.4 5.2c.4.1.7.4.8.8.2.4.2.8 0 1.1l-6.1 15c-.2.5-.7.9-1.2.9zm-33.1-5.1l32.2 2.1 5.2-12.7-12.7-4.6-26.4 3.7.6.9c.1.1.1.2.2.3l2.5 6.8c.2.4.1.9-.2 1.3l-1.4 2.2z"/><path class="st2" d="M520.7 318.6l1.9-10.6 8.5-7.7 41.5 21.1.8.4-1.7-7.8-4.6-8.4V290l-36-28.6-18.3 9.8-1.1-.4-8.1.9-3 22.8 17.2 23.8z"/><path class="st0" d="M573.4 323.2c-.2 0-.4 0-.6-.1l-.8-.4-40.7-20.7-7.4 6.7-1.8 10.2c-.1.7-.8 1.2-1.6 1.2l-2.9-.3c-.4 0-.7-.3-1-.6l-17.3-23.8c-.2-.3-.3-.7-.3-1l3-22.9c.1-.7.6-1.2 1.3-1.2l8.2-.8h.5l.5.1 17.8-9.5c.5-.3 1.1-.2 1.6.1l36 28.7c.3.3.5.7.5 1.1v15.2l4.4 8c.1.1.1.3.1.4l1.7 7.8c.1.5-.1 1.1-.5 1.4-.1.3-.4.4-.7.4zm-42.3-24.3c.2 0 .4 0 .6.2l39.7 20.1-1-4.7-4.5-8.1c-.1-.2-.2-.4-.2-.7v-14.9L531 263.1l-17.5 9.4c-.3.2-.7.2-1.1.1l-.8-.2-6.8.7-2.8 21.2 16.6 22.8.9.1 1.7-9.3c.1-.3.2-.6.4-.8l8.5-7.7c.3-.4.7-.5 1-.5z"/><path class="st3" d="M504.4 406.7l-3-7.1-6.3 1.3-8.1 8.9 10.4 14.5 94 .1 7.9-4.7z"/><path class="st0" d="M591.4 425.8l-94-.1c-.5 0-.9-.2-1.1-.6l-10.5-14.5c-.4-.5-.3-1.3.1-1.8l8.2-8.9c.2-.2.5-.4.8-.4l6.3-1.3c.7-.1 1.3.2 1.6.8l2.7 6.4 94 12.9c.6.1 1.1.5 1.2 1.1.1.6-.2 1.2-.7 1.5l-7.9 4.6c-.2.2-.5.3-.7.3zm-93.3-2.9l92.8.1 4-2.4-90.8-12.4c-.5-.1-.9-.4-1.1-.8l-2.6-6-4.7 1-7.1 7.7 9.5 12.8z"/><path class="st2" d="M500.6 363.2l5.5-8.9-2.3-.8-17.9 9.9 18.5 43.3 94.9 13-9.5-33.3z"/><path class="st0" d="M599.3 421.1h-.2l-94.8-13c-.5-.1-.9-.4-1.1-.8l-18.5-43.4c-.3-.7 0-1.4.6-1.8l17.8-9.9c.3-.2.8-.2 1.1-.1l2.3.8c.4.1.7.5.9.9.1.4.1.9-.1 1.2l-4.5 7.2 87.4 22.8c.5.1.9.5 1 1l9.5 33.3c.1.5 0 1-.3 1.3-.3.4-.7.5-1.1.5zm-93.9-15.7l91.9 12.6-8.7-30.5-88.4-23c-.4-.1-.8-.4-1-.8-.2-.4-.1-.9.1-1.3l4.6-7.3-16.1 8.9 17.6 41.4z"/><path class="st4" d="M561.1 366.8l-21.8-2.1-16.3-5.4-3.4-16.3-7.2 1.2-11.8 19 89.2 23.2 16.9-4.1z"/><path class="st0" d="M589.8 387.8h-.4l-89.2-23.2c-.4-.1-.8-.4-1-.8-.2-.4-.1-.9.1-1.3l11.8-19c.2-.3.6-.6 1-.7l7.3-1.2c.7-.1 1.5.4 1.6 1.1l3.2 15.5 15.3 5 21.7 2.1c.1 0 .2 0 .3.1l45.6 15.5c.6.2 1 .8 1 1.4 0 .6-.5 1.2-1.1 1.3l-16.9 4.1c-.1.1-.2.1-.3.1zm-87-25.5l87 22.7 11.8-2.9-40.8-13.9-21.7-2.1c-.1 0-.2 0-.3-.1l-16.2-5.3c-.5-.2-.8-.6-.9-1.1l-3.1-15-5.3.8-10.5 16.9z"/><path class="st2" d="M531.1 300.3l41.5 21.1 18.6 8.8 12.8 33.7 2.7 18.4-45.6-15.5-21.8-2.1-16.3-5.4-5.2-24.9 4.8-26.4z"/><path class="st0" d="M606.7 383.7c-.2 0-.3 0-.5-.1l-45.4-15.5-21.7-2.1c-.1 0-.2 0-.3-.1l-16.2-5.3c-.5-.2-.8-.6-.9-1.1l-5.2-24.9v-.5l4.8-26.4c.1-.3.2-.6.4-.8l8.5-7.7c.4-.4 1.1-.5 1.6-.2l41.5 21.1 18.5 8.8c.3.2.6.4.7.8l12.8 33.7c0 .1.1.2.1.3l2.7 18.4c.1.5-.1 1-.5 1.3-.3.2-.6.3-.9.3zm-67.1-20.4l21.7 2.1c.1 0 .2 0 .3.1l43.4 14.8-2.3-15.9-12.6-33-18.1-8.6-40.7-20.8-7.4 6.7-4.7 25.7 5 23.9 15.4 5z"/><path class="st5" d="M566.5 318.3l-35.4-18 16.2 15.3z"/><path class="st0" d="M566.5 319.7h-.2l-19.2-2.7c-.3 0-.6-.2-.8-.4l-16.2-15.2c-.5-.5-.6-1.3-.2-1.8s1.2-.8 1.8-.4l35.4 18c.6.3.9 1 .7 1.7-.1.4-.7.8-1.3.8zm-18.6-5.5l10.3 1.5-19-9.7 8.7 8.2z"/><g><path class="st3" d="M555.5 358.3h-18.9l-5.5-9.2-10.7-4.9-.5.3 3.1 14.8 16.3 5.4 21.8 2.1.4.1z"/><path class="st0" d="M561.5 368.3c-.2 0-.3 0-.5-.1l-.2-.1-21.7-2.1c-.1 0-.2 0-.3-.1l-16.2-5.3c-.5-.2-.8-.6-.9-1.1l-3.1-14.8c-.1-.5.1-1.1.6-1.4l.5-.3c.4-.3 1-.3 1.4-.1l10.7 5c.3.1.5.3.6.5l5.1 8.4h18c.5 0 .9.2 1.2.6l6 8.6c.3.5.3 1.2 0 1.7-.4.4-.8.6-1.2.6zm-21.9-5l18.9 1.8-3.8-5.4h-18.1c-.5 0-1-.3-1.2-.7l-5.3-8.7-8.4-3.9 2.5 11.9 15.4 5z"/></g><g><path class="st2" d="M490.6 414.9l6.8 9.4 41.4.1-42.7-10.3z"/><path class="st0" d="M538.8 425.8l-41.4-.1c-.5 0-.9-.2-1.1-.6l-6.8-9.4c-.3-.4-.3-.9-.2-1.4.2-.5.6-.8 1.1-.8l5.5-.8h.5l42.6 10.2c.7.2 1.2.8 1.1 1.5 0 .8-.6 1.4-1.3 1.4zm-40.7-2.9h28.6l-30.7-7.4-2.9.4 5 7z"/></g><g><path class="st5" d="M507.9 256.4l23.2 5-18.3 9.8-7.3-11.2z"/><path class="st0" d="M512.8 272.6c-.5 0-.9-.2-1.2-.6l-7.3-11.1c-.3-.5-.3-1.1 0-1.6l2.4-3.6c.3-.5.9-.7 1.5-.6l23.2 4.9c.6.1 1 .6 1.1 1.2.1.6-.2 1.2-.7 1.4l-18.3 9.8c-.2.1-.5.2-.7.2zm-5.6-12.6l6 9.2 13.7-7.4-18.4-3.9-1.3 2.1z"/></g><g><path class="st1" d="M439.6 376.2l-34.2 6.7-12.6-3.5 12.6-49.6 61.1-58.3 41.4-15.1 7.1 14.7-4.2 33.8 20.3-4.6v48.8l-8.1 10.2-18.6 5v42.4l-5.9 8.1-1.1 9.5h-62.9l-7.7-6z"/><path class="st0" d="M497.4 425.7h-62.9c-.3 0-.6-.1-.9-.3l-7.7-6c-.5-.4-.7-1-.5-1.5l12.1-39.8-31.9 6.2h-.6l-12.6-3.5c-.7-.2-1.2-1-1-1.7l12.6-49.5c.1-.3.2-.5.4-.7l61.1-58.3c.1-.1.3-.2.5-.3l41.4-15.1c.7-.2 1.4.1 1.8.7l7 14.6c.1.2.2.5.1.8l-4 31.8 18.4-4.1c.4-.1.9 0 1.2.3s.5.7.5 1.1v48.8c0 .3-.1.6-.3.9l-8.1 10.2c-.2.2-.5.4-.7.5l-17.6 4.6v41.4c0 .3-.1.6-.3.8l-5.7 7.8-1 9.1c0 .7-.6 1.2-1.3 1.2zm-62.4-2.8h61.1l.9-8.2c0-.2.1-.5.3-.7l5.7-7.7v-42c0-.6.4-1.2 1.1-1.4l18.2-4.8 7.5-9.4v-46.5l-18.6 4.2c-.4.1-.9 0-1.3-.3-.3-.3-.5-.8-.5-1.2l4.2-33.4-6.3-13.1-40 14.6-60.6 57.8-12.2 47.8 11 3.1 33.8-6.6c.5-.1 1 .1 1.3.4.3.4.4.9.3 1.4l-12.5 41.2 6.6 4.8z"/></g><g><path class="st6" d="M441.4 334.5l23.7-23.6-4.8 18z"/><path class="st0" d="M441.4 336c-.5 0-1-.3-1.2-.7-.3-.6-.2-1.3.2-1.7l23.7-23.7c.5-.5 1.2-.5 1.7-.2.6.3.8 1 .7 1.6l-4.8 18.1c-.1.5-.5.9-1 1l-18.8 5.6c-.2-.1-.3 0-.5 0zm21-20.4l-16 16 12.7-3.8 3.3-12.2z"/></g></g><g><path class="st2" d="M39.5 376l-1.9-2.6-8.3 6 9.8 7.6 4.9-6.3z"/><path class="st0" d="M39.1 388.4c-.3 0-.6-.1-.9-.3l-9.8-7.6c-.4-.3-.6-.7-.5-1.1 0-.4.2-.9.6-1.1l8.3-6c.3-.2.7-.3 1.1-.2.4.1.7.3.9.6l1.8 2.6 4.4 4.6c.5.5.5 1.3.1 1.8l-4.8 6.3c-.2.3-.6.5-.9.5-.1-.1-.2-.1-.3-.1zm-7.4-9l7.2 5.6 3.2-4.2-3.6-3.8s-.1-.1-.1-.2l-1.1-1.5-5.6 4.1z"/><path class="st7" d="M66.5 369.2l-28.6 4-8.6 6.2 8.3-6 1.9 2.6 4.5 4.7-4.9 6.3 35.7 2.4 6.1-15z"/><path class="st0" d="M74.8 390.8L39 388.4c-.5 0-1-.4-1.2-.8s-.2-1 .2-1.4l4.1-5.3-3.6-3.8s-.1-.1-.1-.2l-1.1-1.5-7.1 5.1c-.6.5-1.5.3-2-.3s-.3-1.5.3-2l8.6-6.2.6-.3 28.6-4c.2 0 .5 0 .7.1l14.4 5.2c.4.1.7.4.8.8.2.4.2.8 0 1.1l-6.1 15c-.2.5-.7.9-1.3.9zm-32.9-5.1l32 2.1 5.2-12.7-12.7-4.6-26.4 3.8.6.8 4.4 4.6c.5.5.5 1.3.1 1.8l-3.2 4.2z"/><path class="st2" d="M157.3 318.6l1.9-10.6 8.5-7.7 41.5 21.1.8.4-1.7-7.8-4.6-8.4V290l-36-28.6-18.3 9.8-1.1-.4-8.2.9-3 22.8 17.3 23.8z"/><path class="st0" d="M210 323.2c-.2 0-.4 0-.6-.1l-.8-.4-40.7-20.7-7.4 6.7-1.8 10.2c-.1.7-.8 1.2-1.6 1.2l-2.9-.3c-.4 0-.7-.3-1-.6L136 295.4c-.2-.3-.3-.7-.3-1l3-22.9c.1-.7.6-1.2 1.3-1.2l8.2-.8h.5l.5.1 17.8-9.5c.5-.3 1.1-.2 1.6.1l36 28.7c.3.3.5.7.5 1.1v15.2l4.4 8c.1.1.1.3.1.4l1.7 7.8c.1.5-.1 1.1-.5 1.4-.2.3-.5.4-.8.4zm-42.3-24.3c.2 0 .4 0 .6.2l39.7 20.1-1-4.7-4.5-8.1c-.1-.2-.2-.4-.2-.7v-14.9l-34.7-27.7-17.5 9.4c-.3.2-.7.2-1.1.1l-.8-.2-6.8.7-2.8 21.2 16.6 22.8.9.1 1.7-9.3c.1-.3.2-.6.4-.8l8.5-7.7c.3-.4.6-.5 1-.5z"/><path class="st3" d="M141 406.7l-3-7.1-6.3 1.3-8.2 8.9 10.5 14.5 93.9.1 7.9-4.7z"/><path class="st0" d="M227.9 425.8l-94-.1c-.5 0-.9-.2-1.1-.6l-10.5-14.5c-.4-.5-.3-1.3.1-1.8l8.2-8.9c.2-.2.5-.4.8-.4l6.3-1.3c.7-.1 1.3.2 1.6.8l2.7 6.4 94 12.9c.6.1 1.1.5 1.2 1.1.1.6-.2 1.2-.7 1.5l-7.9 4.6c-.2.2-.4.3-.7.3zm-93.2-2.9l92.8.1 4-2.4-90.8-12.4c-.5-.1-.9-.4-1.1-.8l-2.6-6-4.7 1-7.1 7.7 9.5 12.8z"/><path class="st2" d="M137.1 363.2l5.5-8.9-2.3-.8-17.8 9.9 18.5 43.3 94.8 13-9.5-33.3z"/><path class="st0" d="M235.8 421.1h-.2l-94.8-13c-.5-.1-.9-.4-1.1-.8l-18.5-43.4c-.3-.7 0-1.4.6-1.8l17.8-9.9c.3-.2.8-.2 1.1-.1l2.3.8c.4.1.7.5.9.9.1.4.1.9-.1 1.2l-4.5 7.2 87.4 22.8c.5.1.9.5 1 1l9.5 33.3c.1.5 0 1-.3 1.3-.3.4-.7.5-1.1.5zM142 405.4l91.9 12.6-8.7-30.5-88.4-23c-.4-.1-.8-.4-1-.8-.2-.4-.1-.9.1-1.3l4.6-7.3-16.1 8.9 17.6 41.4z"/><path class="st4" d="M197.7 366.8l-21.9-2.1-16.2-5.4-3.4-16.3-7.3 1.2-11.8 19 89.2 23.2 16.9-4.1z"/><path class="st0" d="M226.3 387.8h-.4l-89.2-23.2c-.4-.1-.8-.4-1-.8-.2-.4-.1-.9.1-1.3l11.8-19c.2-.3.6-.6 1-.7l7.3-1.2c.7-.1 1.5.4 1.6 1.1l3.2 15.5 15.3 5 21.7 2.1c.1 0 .2 0 .3.1l45.6 15.5c.6.2 1 .8 1 1.4 0 .6-.5 1.2-1.1 1.3l-16.9 4.1c0 .1-.1.1-.3.1zm-86.9-25.5l87 22.7 11.8-2.9-40.8-13.9-21.7-2.1c-.1 0-.2 0-.3-.1l-16.2-5.3c-.5-.2-.8-.6-.9-1.1l-3.1-15-5.3.8-10.5 16.9z"/><path class="st2" d="M167.7 300.3l41.5 21.1 18.5 8.8 12.9 33.7 2.6 18.4-45.5-15.5-21.9-2.1-16.2-5.4-5.2-24.9 4.8-26.4z"/><path class="st0" d="M243.2 383.7c-.2 0-.3 0-.5-.1l-45.4-15.5-21.7-2.1c-.1 0-.2 0-.3-.1l-16.2-5.3c-.5-.2-.8-.6-.9-1.1l-5.2-24.9v-.5l4.8-26.4c.1-.3.2-.6.4-.8l8.5-7.7c.4-.4 1.1-.5 1.6-.2l41.5 21.1 18.5 8.8c.3.2.6.4.7.8l12.8 33.7c0 .1.1.2.1.3l2.7 18.4c.1.5-.1 1-.5 1.3-.2.2-.5.3-.9.3zm-67.1-20.4l21.7 2.1c.1 0 .2 0 .3.1l43.4 14.8-2.3-15.9-12.6-33-18.1-8.6-40.6-20.8-7.4 6.7-4.7 25.7 5 23.9 15.3 5z"/><g><path class="st5" d="M203.1 318.3l-35.4-18 16.1 15.3z"/><path class="st0" d="M203.1 319.7h-.2l-19.2-2.7c-.3 0-.6-.2-.8-.4l-16.2-15.2c-.5-.5-.6-1.3-.2-1.8.4-.6 1.2-.8 1.8-.4l35.4 18c.6.3.9 1 .7 1.7-.2.4-.7.8-1.3.8zm-18.6-5.5l10.3 1.5-19-9.7 8.7 8.2z"/></g><g><path class="st3" d="M192 358.3h-18.8l-5.5-9.2-10.7-4.9-.5.3 3.1 14.8 16.2 5.4 21.9 2.1.3.1z"/><path class="st0" d="M198 368.3c-.2 0-.3 0-.5-.1l-.2-.1-21.7-2.1c-.1 0-.2 0-.3-.1l-16.2-5.3c-.5-.2-.8-.6-.9-1.1l-3.1-14.8c-.1-.5.1-1.1.6-1.4l.5-.3c.4-.3 1-.3 1.4-.1l10.7 5c.3.1.5.3.6.5l5.1 8.4h18c.5 0 .9.2 1.2.6l6 8.6c.4.5.3 1.2 0 1.7-.3.4-.7.6-1.2.6zm-21.9-5l18.9 1.8-3.8-5.4h-18.1c-.5 0-1-.3-1.2-.7l-5.3-8.7-8.4-3.9 2.5 11.9 15.4 5z"/></g><g><path class="st2" d="M127.2 414.9l6.8 9.4 41.4.1-42.7-10.3z"/><path class="st0" d="M175.4 425.8l-41.4-.1c-.5 0-.9-.2-1.1-.6l-6.8-9.4c-.3-.4-.3-.9-.2-1.4.2-.5.6-.8 1.1-.8l5.5-.8h.5l42.6 10.2c.7.2 1.2.8 1.1 1.5 0 .8-.6 1.4-1.3 1.4zm-40.7-2.9h28.6l-30.7-7.4-2.9.4 5 7z"/></g><g><path class="st5" d="M144.5 256.4l23.2 5-18.3 9.8-7.3-11.2z"/><path class="st0" d="M149.4 272.6c-.5 0-.9-.2-1.2-.6l-7.3-11.1c-.3-.5-.3-1.1 0-1.6l2.4-3.6c.3-.5.9-.7 1.5-.6L168 260c.6.1 1 .6 1.1 1.2.1.6-.2 1.2-.7 1.4l-18.3 9.8c-.3.1-.5.2-.7.2zm-5.6-12.6l6 9.2 13.7-7.4-18.4-3.9-1.3 2.1z"/></g><g><path class="st1" d="M76.1 376.2L44 380.7l-14.7-1.3L42 329.8l61.1-58.3 41.4-15.1 7 14.7-4.2 33.8 20.4-4.6v48.8l-8.1 10.2-18.6 5v42.4l-6 8.1-1 9.5H71.1l-7.7-6z"/><path class="st0" d="M134 425.7H71.1c-.3 0-.6-.1-.9-.3l-7.7-6c-.5-.4-.7-1-.5-1.5l12.1-40-30 4.1h-.3l-14.6-1.3c-.4 0-.8-.3-1-.6-.2-.3-.3-.8-.2-1.2l12.6-49.5c.1-.3.2-.5.4-.7l61.1-58.3c.1-.1.3-.2.5-.3L144 255c.7-.2 1.4.1 1.8.7l7 14.6c.1.2.2.5.1.8l-4 31.8 18.4-4.1c.4-.1.9 0 1.2.3.3.3.5.7.5 1.1V349c0 .3-.1.6-.3.9l-8.1 10.2c-.2.2-.5.4-.7.5l-17.6 4.6v41.4c0 .3-.1.6-.3.8l-5.7 7.8-1 9.1c0 .9-.6 1.4-1.3 1.4zm-62.4-2.8h61.1l.9-8.2c0-.2.1-.5.3-.7l5.7-7.7v-42c0-.6.4-1.2 1.1-1.4l18.2-4.8 7.5-9.4v-46.5l-18.6 4.2c-.5.1-.9 0-1.3-.3-.3-.3-.5-.8-.5-1.2l4.2-33.4-6.3-13.1-40 14.6-60.6 57.8-12.1 47.5 12.8 1.1 32-4.4c.5-.1 1 .1 1.3.5.3.4.4.9.3 1.3l-12.6 41 6.6 5.1z"/></g><g><path class="st6" d="M78 334.5l23.7-23.6-4.9 18z"/><path class="st0" d="M78 336c-.5 0-1-.3-1.2-.7-.3-.6-.2-1.3.2-1.7l23.7-23.7c.5-.5 1.2-.5 1.7-.2.6.3.8 1 .7 1.6l-4.8 18.1c-.1.5-.5.9-1 1L78.5 336c-.2-.1-.4 0-.5 0zm20.9-20.4l-16 16 12.7-3.8 3.3-12.2z"/></g></g><g><path class="st0" d="M302.1 282.9h-.3l-17.3-4.2c-.5-.1-.9-.5-1-1-.1-.5 0-1 .4-1.4l17.3-16.7c.1-.1.2-.1.3-.2l2.5-1.5c.3-.2.6-.2.9-.2l3.4.5c.5.1.9.4 1.1.8l2.2 4.5c.1.2.1.4.1.6v10.8c0 .4-.2.8-.5 1.1l-8.1 6.8c-.4 0-.7.1-1 .1zm-14.5-6.5l14.1 3.5 7.1-5.9v-9.8l-1.8-3.5-2.1-.3-2 1.2-15.3 14.8z"/><path class="st0" d="M285.4 278.1c-.5 0-.9-.2-1.2-.6-.4-.6-.3-1.3.2-1.8l16.7-16.2c.1-.1.2-.1.3-.2l2.5-1.5c.3-.2.6-.2.9-.2l2 .3c.6.1 1.1.5 1.2 1.1l.6 2.9v.4l-.4 5c-.1.6-.5 1.1-1.1 1.3l-2.5.5L286 278c-.2 0-.4.1-.6.1zm17.5-16.5l-10.4 10.1 11-5.2c.1 0 .2-.1.3-.1l1.7-.3.3-3.8-.4-1.7-.6-.1-1.9 1.1z"/><path class="st2" d="M297.6 409.8l-13.7 4.5-7.2-13.7 8-13.9 16.3-1.1 3.1 13.2z"/><path class="st0" d="M283.9 415.7c-.5 0-1-.3-1.3-.8l-7.2-13.6c-.2-.4-.2-.9 0-1.4l8-14c.2-.4.7-.7 1.1-.7l16.2-1c.7 0 1.3.4 1.5 1.1l3.1 13.2c.1.4 0 .7-.2 1l-6.5 11c-.2.3-.5.5-.8.6l-13.7 4.5c.1.1 0 .1-.2.1zm-5.5-15l6.3 11.9 12-3.9 5.9-10-2.7-11.5-14.3.9-7.2 12.6z"/><path class="st7" d="M272.5 423.9h45.7v-17.5s-16.8 3.6-17.6 3.4c-.9-.2-22.9 5.5-22.9 5.5s-9.7-2.9-9.2-2.4c.5.6 4 11 4 11z"/><path class="st0" d="M318.2 425.4h-45.7c-.6 0-1.2-.4-1.3-1-1.5-4.6-3.4-9.8-3.8-10.6-.3-.5-.4-1.1-.1-1.6.6-1.1.7-1.2 10.4 1.7 19.9-5.1 22.4-5.5 23.1-5.4h-.1c1 0 9.7-1.7 17.2-3.4.4-.1.9 0 1.2.3.3.3.5.7.5 1.1V424c0 .7-.6 1.4-1.4 1.4zm-44.7-2.9h43.3v-14.3c-12.9 2.8-15.5 3.1-16.3 3-1.5.1-14.5 3.4-22.5 5.4-.3.1-.5.1-.8 0-2.3-.7-4.7-1.4-6.4-1.9.6 1.7 1.5 4.1 2.7 7.8zm-6-8.6zm0 0zm33.4-5.4z"/><path class="st7" d="M283.8 395.8c.6-.4 17.2-7.9 17.2-7.9l-3.4-11.7-11.8 1.2-7 10.6 5 7.8z"/><path class="st0" d="M283.8 397.3c-.5 0-.9-.2-1.2-.6l-5-7.8c-.3-.5-.3-1.1 0-1.6l7-10.6c.2-.4.6-.6 1-.6l11.8-1.2c.7-.1 1.3.4 1.5 1l3.4 11.7c.2.7-.1 1.4-.8 1.7-6.5 2.9-16.4 7.4-17.1 7.8-.1.1-.4.2-.6.2zm-3.4-9.2l3.9 5.9c3-1.4 10.6-4.9 15-6.9l-2.8-9.3-10 1-6.1 9.3z"/><path class="st1" d="M306 205.7l-10.6-9.4h22.8l-2.7 11.4z"/><path class="st0" d="M315.5 209.1h-.3l-9.6-2.1c-.2-.1-.5-.2-.6-.3l-10.6-9.3c-.4-.4-.6-1-.4-1.6.2-.6.7-.9 1.3-.9h22.9c.4 0 .8.2 1.1.5.3.3.4.8.3 1.2l-2.7 11.4c-.1.7-.7 1.1-1.4 1.1zm-8.9-4.7l7.8 1.7 2-8.3h-17.3l7.5 6.6z"/><g><path class="st1" d="M295.4 196.3l-50.7 32.2-13.9 19.5-7.2 41.5-5.6 9.9-15.1 54.1-6.5 24.2-8.6 36.3 10.5 9.9h74.2l11.4-9.6-.4-4.5 4-16.5 13.1-21.2 17.6-157.5-12.2-8.9z"/><path class="st0" d="M272.5 425.4h-74.2c-.4 0-.7-.1-1-.4l-10.5-9.9c-.4-.3-.5-.9-.4-1.4l8.7-36.3 6.5-24.3 15.1-54c0-.1.1-.2.1-.3l5.5-9.7 7.1-41.3c0-.2.1-.4.2-.6l13.9-19.6c.1-.1.2-.3.4-.4l50.7-32.1c.5-.3 1.2-.3 1.7.1l10.6 9.3 12.2 8.8c.4.3.6.8.6 1.3L302 372.2c0 .2-.1.4-.2.6l-13 21-3.9 16.1.4 4.2c0 .5-.1.9-.5 1.2l-11.4 9.7c-.2.2-.6.4-.9.4zm-73.6-2.9H272l10.5-8.9-.4-3.7v-.5l4-16.5c0-.1.1-.3.2-.4l12.9-21 17.5-156.4-11.6-8.4-.1-.1-9.8-8.6-49.5 31.4-13.5 19.1-7.1 41.2c0 .2-.1.3-.2.5l-5.5 9.8-15 53.9-6.5 24.2-8.5 35.5 9.5 8.9z"/></g><g><path class="st2" d="M318.2 423.9l-20.6-14.1v-20.4l-3.9-6.8 1.5-74.7 3.9-27.3 5.1-12.9-2.1-7.2 2.7-33.4 1.2-21.4 12.2-9.4 44.5 15.8 40.8 22.3 17.7 11.6 13.6 60.7 2.7 21 6.4 23.5 4.1 34.1-9 38.6z"/><path class="st0" d="M439 425.4H318.2c-.3 0-.6-.1-.8-.2L296.8 411c-.4-.3-.6-.7-.6-1.2v-20.1l-3.7-6.4c-.1-.2-.2-.5-.2-.7l1.5-74.7v-.2l3.9-27.4c0-.1 0-.2.1-.3l4.9-12.4-2-6.8c0-.2-.1-.3-.1-.5l2.7-33.3 1.2-21.4c0-.4.2-.8.6-1l12.3-9.3c.4-.3.9-.4 1.3-.2l44.5 15.7c.1 0 .1.1.2.1l40.8 22.3s.1 0 .1.1l17.7 11.6c.3.2.5.5.6.9l13.5 60.7v.1l2.7 21 6.4 23.3v.2l4.1 34.1v.5l-9 38.7c-.1.5-.7 1-1.3 1zm-120.3-2.9h119.2l8.7-37.3-4.1-33.8-6.4-23.3v-.2l-2.7-21-13.4-60-17.2-11.3-40.6-22.2-43.7-15.4-11.1 8.5-1.2 20.8-2.7 33.1 2 7c.1.3.1.6 0 .9l-5 12.7-3.8 27.1-1.5 74.2 3.7 6.4c.1.2.2.5.2.7V409l19.6 13.5z"/><path class="st4" d="M352.3 354.4l-7.2-5v-7.2l-1.4-2.4.6-26.2 1.3-9.7 1.8-4.5-.7-2.5.9-11.7.4-9 4.3-1.9 15.7 7.4 13.5 7.9 6.2 4.1 3.8 19.4 2.8 7.4 2.2 8.3 1.5 12-3.2 13.6z"/><path class="st0" d="M394.8 355.8h-42.5c-.3 0-.6-.1-.8-.2l-7.2-5c-.4-.3-.6-.7-.6-1.2v-6.8l-1.2-2c-.1-.2-.2-.5-.2-.7l.5-26.2v-.2l1.4-9.6c0-.1 0-.2.1-.3l1.6-4.1-.6-2.1c0-.2-.1-.3-.1-.5l.9-11.7.4-8.9c0-.5.4-1 .8-1.2l4.3-1.9c.4-.2.8-.2 1.2 0l15.7 7.4s.1 0 .1.1l13.5 7.8 6.3 4.1c.3.2.5.5.6.9l3.8 19.3 2.7 7.3v.1l2.3 8.2v.2l1.4 12v.5l-3.2 13.6c0 .6-.5 1.1-1.2 1.1zm-42-2.9h40.9l2.9-12.3-1.4-11.6-2.2-8.1-2.7-7.3c0-.1 0-.1-.1-.2l-3.7-18.9-5.7-3.8-13.3-7.8-15-7.1-2.9 1.3-.4 8.1-.9 11.5.7 2.3c.1.3.1.6 0 .9l-1.7 4.4-1.3 9.4-.5 25.8 1.2 2c.1.2.2.5.2.7v6.4l5.9 4.3z"/><g><path class="st3" d="M373 312.9l6.1-10.8 8.4-8.6-6-3.9-13.5-7.9-15.7-7.4-4.3 1.9-.4 9-.9 11.7.7 2.5-1.8 4.5-1.3 9.7-.3 14.1 4.7 1.5 15.2-4.9z"/><path class="st0" d="M348.7 330.7c-.1 0-.3 0-.4-.1l-4.7-1.5c-.6-.2-1-.8-1-1.4l.3-14.2v-.2l1.4-9.6c0-.1 0-.2.1-.3l1.6-4.1-.6-2.1c0-.2-.1-.3-.1-.5l.9-11.7.4-8.9c0-.5.4-1 .8-1.2l4.3-1.9c.4-.2.8-.2 1.2 0l15.7 7.4s.1 0 .1.1l13.5 7.8 6.1 4c.4.2.6.6.6 1s-.1.8-.4 1.1l-8.3 8.4-5.9 10.7c0 .1-.1.1-.1.2l-9.1 11.4c-.2.2-.4.4-.7.5l-15.2 4.9c-.2.1-.3.2-.5.2zm-3.3-4l3.3 1.1 14.4-4.7 8.8-11 6-10.7c.1-.1.1-.2.2-.3l7.2-7.3-4.6-3-13.3-7.8-15-7.1-2.9 1.3-.4 8.1-.9 11.5.7 2.3c.1.3.1.6 0 .9l-1.7 4.4-1.3 9.4-.5 12.9z"/></g><g><path class="st6" d="M369.7 348.7l-1.1-7.4-4.7-17-9.6-6.6-9.8-5.7-.2 1.6-.6 26.2 1.4 2.4v7.2l7.2 5h16.4z"/><path class="st0" d="M368.7 355.8h-16.4c-.3 0-.6-.1-.8-.2l-7.2-5c-.4-.3-.6-.7-.6-1.2v-6.8l-1.2-2c-.1-.2-.2-.5-.2-.7l.5-26.2v-.2l.2-1.6c.1-.5.4-.9.8-1.1.4-.2.9-.2 1.3.1l9.8 5.7s.1 0 .1.1l9.6 6.6c.3.2.5.5.6.8l4.7 16.9v.2l1.1 7.4v.4l-1 5.7c0 .6-.6 1.1-1.3 1.1zm-15.9-2.9h14.7l.7-4.3-1-7.1-4.5-16.3-9.1-6.3-7.9-4.6-.5 25.2 1.2 2c.1.2.2.5.2.7v6.4l6.2 4.3z"/></g></g><g><path class="st1" d="M247.3 278.4l-23.7 11.1-5.6 9.9z"/><path class="st0" d="M218 300.9c-.3 0-.7-.1-.9-.4-.5-.4-.6-1.2-.3-1.8l5.6-9.9c.1-.3.4-.5.6-.6l23.6-11.2c.7-.3 1.5-.1 1.8.6.4.6.2 1.4-.4 1.9l-29.2 21.1c-.2.2-.5.3-.8.3zm6.6-10.3l-2.2 3.9 11.5-8.3-9.3 4.4z"/></g></g><g><path class="st0" d="M3.5 422.8h629v2.8H3.5zM27.5 443.3h18.8v2.8H27.5zM80.8 443.3h138.7v2.8H80.8zM259.3 443.3h122.4v2.8H259.3zM425.7 443.3h137.6v2.8H425.7zM591 443.3h28.8v2.8H591zM145.7 465.7h169.5v2.8H145.7zM379.1 465.7h102v2.8h-102z"/></g></svg>
