<?xml version="1.0" encoding="utf-8"?>
<!-- Generator: Adobe Illustrator 18.0.0, SVG Export Plug-In . SVG Version: 6.00 Build 0)  -->
<!DOCTYPE svg PUBLIC "-//W3C//DTD SVG 1.1//EN" "http://www.w3.org/Graphics/SVG/1.1/DTD/svg11.dtd">
<svg version="1.1" id="Layer_1" xmlns="http://www.w3.org/2000/svg" xmlns:xlink="http://www.w3.org/1999/xlink" x="0px" y="0px"
	 viewBox="0 0 429.2 166.7" width="82px" height="31px" enable-background="new 0 0 429.2 166.7" xml:space="preserve">
<g>
	<g>
		<g>
			<path d="M409.1,19.5V9.4h4.5c0.9,0,1.6,0.1,2,0.3c0.5,0.2,0.8,0.5,1.1,1c0.3,0.5,0.4,1,0.4,1.5c0,0.7-0.2,1.3-0.7,1.8
				c-0.5,0.5-1.2,0.8-2.1,0.9c0.4,0.2,0.6,0.3,0.8,0.5c0.4,0.4,0.8,0.8,1.1,1.3l1.8,2.7h-1.7l-1.3-2.1c-0.4-0.6-0.7-1.1-1-1.4
				c-0.3-0.3-0.5-0.5-0.7-0.7c-0.2-0.1-0.4-0.2-0.6-0.3c-0.2,0-0.4,0-0.7,0h-1.5v4.5H409.1z M410.4,13.9h2.9c0.6,0,1.1-0.1,1.4-0.2
				c0.3-0.1,0.6-0.3,0.8-0.6c0.2-0.3,0.3-0.6,0.3-0.9c0-0.5-0.2-0.9-0.5-1.2c-0.3-0.3-0.9-0.5-1.6-0.5h-3.2V13.9z"/>
		</g>
		<g>
			<path d="M412.8,25c-5.7,0-10.4-4.7-10.4-10.4S407,4.3,412.8,4.3c5.7,0,10.4,4.7,10.4,10.4S418.5,25,412.8,25z M412.8,5.6
				c-5,0-9.1,4.1-9.1,9.1s4.1,9.1,9.1,9.1c5,0,9.1-4.1,9.1-9.1S417.8,5.6,412.8,5.6z"/>
		</g>
	</g>
	<g>
		<g>
			<g>
				<rect x="8" y="15.5" width="122.3" height="122.3"/>
				<rect x="19.9" y="27.4" fill="#FFFFFF" width="98.6" height="98.6"/>
				<rect x="58.7" y="65.8" width="94.1" height="94.1"/>
				<rect x="69.9" y="77" fill="#F15A22" width="71.5" height="71.5"/>
			</g>
			<g>
				<path d="M258.1,131.7c-0.9,2.3-2.3,4.3-4,6.2c-1.8,1.8-3.9,3.4-6.2,4.7c-2.3,1.3-4.9,2.3-7.5,3.1c-2.7,0.8-5.4,1.1-8.2,1.1
					c-3.9,0-7.7-0.8-11.2-2.3c-3.5-1.5-6.7-3.6-9.5-6.3c-2.8-2.7-5.1-5.9-6.8-9.6c-1.6-3.4-2.6-7.2-3.1-11.4h77.7l0.2-0.8
					c0.1-0.7,0.2-1.5,0.3-2.7c0.1-1.1,0.1-2.3,0.1-3.7c0-6.3-1.1-12.5-3.4-18.4c-2.3-5.9-5.5-11.2-9.7-15.6
					c-4.2-4.5-9.3-8.1-15.2-10.8c-5.9-2.7-12.6-4-19.8-4c-7.2,0-13.9,1.3-19.8,4c-6,2.6-11.2,6.2-15.5,10.8
					c-4.3,4.5-7.7,9.8-10.1,15.8c-2.4,6-3.6,12.4-3.6,19.1c0,6.7,1.2,13.1,3.6,19.2c2.4,6,5.7,11.4,10,15.9
					c4.3,4.5,9.5,8.1,15.4,10.8c6,2.6,12.7,4,19.8,4c4.7,0,9.4-0.6,13.8-1.8c4.4-1.2,8.4-2.9,12-5.1c3.6-2.1,6.8-4.7,9.6-7.6
					c2.8-2.9,5-6.2,6.6-9.8l0.5-1.1l-15.7-4.3L258.1,131.7z M231.9,75.2c4,0,7.9,0.7,11.5,2.2c3.6,1.4,6.8,3.5,9.5,6
					c2.7,2.5,5,5.7,6.8,9.3c1.6,3.3,2.7,7,3.1,10.9h-61.5c0.4-3.9,1.4-7.5,3-10.8c1.7-3.6,3.9-6.7,6.6-9.3c2.7-2.6,5.9-4.6,9.5-6.1
					C223.9,75.9,227.8,75.2,231.9,75.2z"/>
				<polygon points="403.2,28.8 289.1,28.8 289.1,45.8 367.7,45.8 275.9,159.7 391.2,159.7 391.2,142.7 311.5,142.7 				"/>
			</g>
		</g>
	</g>
</g>
</svg>
