<?xml version="1.0" encoding="utf-8"?>
<!-- Generator: Adobe Illustrator 20.1.0, SVG Export Plug-In . SVG Version: 6.00 Build 0)  -->
<svg version="1.1" id="Layer_1" xmlns="http://www.w3.org/2000/svg" xmlns:xlink="http://www.w3.org/1999/xlink" x="0px" y="0px"
	 viewBox="0 0 82 31" style="enable-background:new 0 0 82 31;" xml:space="preserve">
<style type="text/css">
	.st0{fill:#FFFFFF;}
	.st1{fill:#F05A22;}
</style>
<g>
	<g>
		<polygon class="st0" points="9.4,9 25.8,9 25.8,0.9 1.2,0.9 1.2,25.5 9.4,25.5 		"/>
		<rect x="11.4" y="11" class="st0" width="18.9" height="18.9"/>
		<rect x="13.7" y="13.3" class="st1" width="14.4" height="14.4"/>
	</g>
	<g>
		<path class="st0" d="M51.6,24.3c-0.2,0.5-0.5,0.9-0.8,1.2c-0.4,0.4-0.8,0.7-1.2,0.9c-0.5,0.3-1,0.5-1.5,0.6
			c-0.5,0.2-1.1,0.2-1.6,0.2c-0.8,0-1.6-0.2-2.3-0.5c-0.7-0.3-1.4-0.7-1.9-1.3c-0.6-0.5-1-1.2-1.4-1.9c-0.3-0.7-0.5-1.5-0.6-2.3
			h15.6l0-0.2c0-0.1,0-0.3,0.1-0.5c0-0.2,0-0.5,0-0.7c0-1.3-0.2-2.5-0.7-3.7c-0.5-1.2-1.1-2.2-1.9-3.1c-0.8-0.9-1.9-1.6-3.1-2.2
			c-1.2-0.5-2.5-0.8-4-0.8c-1.4,0-2.8,0.3-4,0.8c-1.2,0.5-2.3,1.3-3.1,2.2c-0.9,0.9-1.6,2-2,3.2c-0.5,1.2-0.7,2.5-0.7,3.8
			c0,1.3,0.2,2.6,0.7,3.9c0.5,1.2,1.2,2.3,2,3.2c0.9,0.9,1.9,1.6,3.1,2.2c1.2,0.5,2.5,0.8,4,0.8c1,0,1.9-0.1,2.8-0.4
			c0.9-0.2,1.7-0.6,2.4-1c0.7-0.4,1.4-0.9,1.9-1.5c0.6-0.6,1-1.3,1.3-2l0.1-0.2l-3.2-0.9L51.6,24.3z M46.3,12.9
			c0.8,0,1.6,0.1,2.3,0.4c0.7,0.3,1.4,0.7,1.9,1.2c0.5,0.5,1,1.1,1.4,1.9c0.3,0.7,0.5,1.4,0.6,2.2H40.1c0.1-0.8,0.3-1.5,0.6-2.2
			c0.3-0.7,0.8-1.4,1.3-1.9c0.5-0.5,1.2-0.9,1.9-1.2C44.7,13,45.5,12.9,46.3,12.9z"/>
		<polygon class="st0" points="80.8,3.6 57.8,3.6 57.8,7 73.6,7 55.2,29.9 78.4,29.9 78.4,26.5 62.3,26.5 		"/>
	</g>
</g>
</svg>
