<svg xmlns="http://www.w3.org/2000/svg" viewBox="0 0 130 130"><rect fill="none"/><g fill="#b1b1b1"><path d="M110.815 19.524l10.94-.703c3.397-.214 5.97-3.138 5.75-6.525-.215-3.393-3.175-5.942-6.526-5.75L94.592 8.23c-3.374.22-5.932 3.105-5.755 6.47l1.422 26.39c.177 3.284 2.895 5.822 6.14 5.822l.338-.005c3.396-.188 5.997-3.087 5.81-6.477l-.667-12.402c9.416 9.588 14.823 22.47 14.823 36.313 0 20.375-12 38.962-30.57 47.368-3.1 1.395-4.477 5.038-3.07 8.136 1.024 2.276 3.27 3.616 5.605 3.616.85 0 1.714-.182 2.53-.55C114.168 112.52 129 89.536 129 64.34c0-17.072-6.62-32.978-18.185-44.816zM46.94 10.153c-1.39-3.104-5.056-4.468-8.138-3.07C15.845 17.47 1 40.46 1 65.653c0 17.076 6.62 32.978 18.196 44.82l-10.947.693c-3.402.22-5.97 3.147-5.75 6.537.198 3.252 2.91 5.76 6.13 5.76l.4-.016 26.383-1.687c3.368-.21 5.937-3.104 5.75-6.472l-1.423-26.39c-.182-3.386-3.032-5.933-6.477-5.812-3.385.188-5.986 3.087-5.81 6.478l.666 12.402c-9.41-9.592-14.817-22.474-14.817-36.314 0-20.372 12-38.962 30.576-47.363 3.093-1.395 4.465-5.04 3.06-8.137z"/></g></svg>
