<svg xmlns="http://www.w3.org/2000/svg" viewBox="0 0 227 290"><style>.st0{fill-rule:evenodd;clip-rule:evenodd;fill:#FAFAFA;} .st1{fill-rule:evenodd;clip-rule:evenodd;fill:#EEEEEE;} .st2{opacity:0.15;fill:#56352C;} .st3{fill:#FCB812;} .st4{fill:#514744;} .st5{fill:#FFDEAC;} .st6{fill:#F4EDEA;} .st7{fill:#F15A22;} .st8{fill:#E2491A;} .st9{fill:#FFFFFF;} .st10{fill:#15B4CE;} .st11{fill:#009BB1;} .st12{fill:#DA5221;} .st13{opacity:0.1;}</style><circle class="st0" cx="113.5" cy="122.3" r="112.1"/><path class="st1" d="M113.5 37.8c46.7 0 84.5 37.8 84.5 84.5s-37.8 84.5-84.5 84.5S29 169 29 122.3s37.8-84.5 84.5-84.5z"/><path class="st2" d="M123.2 15.9c-.7-.8-1.3-1.5-2-2.3l-.3-.3c-.6-.7-1.2-1.3-1.8-2l-.5-.5-1.8-1.8c-.2-.2-.4-.4-.6-.5-.6-.6-1.2-1.1-1.8-1.7l-.4 198.6h21.6v-10.3h2.1c11.4-22.9 18.3-45.6 18.4-77.9.1-44.7-12.9-77.3-32.8-101.2 0-.1-.1-.1-.1-.1z"/><path class="st3" d="M129.9 200.9c3.3 7.4 11.1 28.7 6.3 49.3-5 21.3-20 36.8-21.9 35.8-1.3-.7 5-7.8 2.4-16.3-2.6-8.3-10.7-9.5-18-21.3-.4-.6-3.4-5.5-5.2-11.7-4.1-13.6-.2-28.5 2.7-35.8h33.7z"/><path class="st4" d="M114.4 288.4c-.6 0-1-.2-1.3-.3-2.3-1.3-1.2-3.8-.4-5.7 1.3-2.9 3.2-7.2 1.6-12-1.1-3.6-3.5-5.6-6.8-8.5-3.2-2.8-7.2-6.2-11-12.3-.6-.9-3.6-5.9-5.5-12.2-4.8-16 .9-32.7 2.8-37.4l.6-1.5 37 .1.6 1.4c2 4.5 11.8 27.9 6.4 50.8-4.7 20.1-17.9 35.3-22.5 37.3-.5.2-1 .3-1.5.3zm-16.7-85.2c-3.2 9-5.3 21.8-2.1 32.8 1.7 5.7 4.4 10.2 5 11.1 3.4 5.4 6.9 8.5 10.1 11.2 3.4 3 6.7 5.7 8.2 10.7 1.2 3.8.8 7.3.1 10.2 4.9-5.7 11.8-16.3 14.9-29.5 4.6-19.7-2.8-39.9-5.5-46.4l-30.7-.1z"/><path class="st5" d="M122.6 202.1c9.5 27 4.1 38.8 1.4 43.1-1.7 2.7-5.7 7.5-6.7 7-.9-.5 1.4-4.3 0-8.2-1.4-3.8-5.6-5.2-7.3-6.1-4.4-2.4-8.6-10.3-6.6-35.3l19.2-.5z"/><path class="st6" d="M91.412 194.95l44.2.1-.024 10.3-44.2-.1z"/><path class="st4" d="M135.6 207.8l-44.2-.1c-.6 0-1.2-.3-1.7-.7-.4-.4-.7-1.1-.7-1.7V195c0-1.3 1.1-2.4 2.4-2.4l44.2.1c1.3 0 2.4 1.1 2.4 2.4v10.3c0 .6-.3 1.2-.7 1.7-.4.4-1.1.7-1.7.7zm-41.8-4.9l39.4.1v-5.6l-39.4-.1v5.6z"/><path class="st7" d="M113.5 182.4c26.6.1 49.6 15.3 61 37.4 1.1 2.2 4.5 2 5.1-.5 1.6-5.8 2.5-11.8 2.5-18.1.1-39.5-33.2-71.3-73.3-68.6-33.3 2.2-60.5 28.6-63.6 61.8-.8 8.6 0 16.8 2.1 24.6.7 2.4 4 2.7 5.1.5 11.4-22.1 34.5-37.2 61.1-37.1z"/><path class="st8" d="M108.8 132.6c-12.5.8-24.1 5-33.9 11.7 8.7-5 18.7-8.1 29.2-8.8 40.1-2.7 73.4 29.1 73.3 68.6 0 5.7-.8 11.3-2.1 16.6 1.5 1.1 3.8.6 4.3-1.4 1.6-5.8 2.5-11.8 2.5-18.1.1-39.5-33.2-71.2-73.3-68.6z"/><path class="st9" d="M51.4 219c-2.1-7.7-2.9-16-2.1-24.6 3.1-33.2 30.3-59.6 63.6-61.8 1-.1 1.9-.1 2.9-.1-2.3-.1-4.7-.1-7.1.1-33.3 2.2-60.5 28.6-63.6 61.8-.8 8.6 0 16.8 2.1 24.6.6 2.2 3.3 2.6 4.7 1-.1-.2-.4-.5-.5-1z"/><path class="st4" d="M177 223.7c-1.9 0-3.7-1.1-4.6-2.8-11.4-22.2-33.9-36.1-58.8-36.1h-.2c-24.9 0-47.4 13.7-58.9 35.9-1 1.9-3 3-5.2 2.8-2.1-.2-3.8-1.7-4.4-3.7-2.2-8.3-3-16.8-2.1-25.4 3.2-34.2 31.5-61.7 65.8-64 19.9-1.3 38.9 5.4 53.4 19 14.3 13.4 22.5 32.4 22.4 52 0 6.3-.9 12.7-2.6 18.7-.6 2-2.3 3.5-4.4 3.7 0-.1-.2-.1-.4-.1zM113.4 180h.2c26.7.1 50.9 14.9 63.1 38.7.1.2.2.3.4.2.2 0 .3-.2.3-.2 1.6-5.7 2.4-11.6 2.4-17.5 0-18.3-7.6-36-20.9-48.5-13.5-12.7-31.2-19-49.8-17.8-32 2.1-58.4 27.8-61.4 59.7-.8 8-.1 16 2 23.7 0 .1.1.2.3.2.2 0 .3-.1.4-.2 12.2-23.6 36.3-38.3 63-38.3z"/><path class="st6" d="M89.3 197.3c-.9 0-1.7-.5-2.1-1.3-13-26.5-18.3-49.4-18.3-79C69 68.6 84.5 28.6 112.4 4.5c.4-.4 1-.6 1.6-.6.6 0 1.1.2 1.6.6 27.8 24.2 43.1 64.2 43 112.6-.1 29.6-5.5 52.5-18.6 79-.4.8-1.2 1.3-2.1 1.3-.2.1-48.6-.1-48.6-.1z"/><path class="st4" d="M113.9 6.3C139 28.2 156.2 65.8 156 117.1c-.1 32.3-7 55-18.4 77.9-7.6 0-40.9-.1-48.4-.1-11.3-23-18.1-45.7-18-78 .2-51.3 17.5-88.8 42.7-110.6m0-4.7c-1.1 0-2.2.4-3.1 1.2C82.4 27.3 66.7 67.9 66.5 117c-.1 30 5.3 53.2 18.5 80.1.8 1.6 2.5 2.7 4.3 2.7l27.3.1h21.1c1.8 0 3.5-1 4.3-2.6 13.3-26.8 18.8-50 18.9-80 .1-49.1-15.4-89.8-43.8-114.4-.9-1-2-1.3-3.2-1.3z"/><path class="st7" d="M113.8 55c10.7 0 22.5.4 32.7 1.1-7.4-21.2-19.6-38.5-32.6-49.8-13 11.2-25.1 28-32.6 49.1 10.2-.6 21.9-.5 32.5-.4z"/><path class="st10" d="M113.7 113c-10.9 0-19.7-8.9-19.7-19.8 0-10.8 8.9-19.7 19.7-19.7 10.9 0 19.7 8.9 19.7 19.8 0 10.8-8.8 19.7-19.7 19.7z"/><path class="st4" d="M113.7 75.9c.1 0 .1 0 0 0 9.6 0 17.4 7.8 17.3 17.4 0 9.5-7.8 17.3-17.3 17.3-9.6 0-17.3-7.8-17.3-17.4 0-9.5 7.8-17.3 17.3-17.3m.1-4.8c-12.2 0-22.1 9.9-22.1 22.1 0 12.2 9.9 22.1 22.1 22.2 12.2 0 22.1-9.9 22.2-22.1-.1-12.2-10-22.1-22.2-22.2z"/><path class="st10" d="M113.7 110.6c-9.6 0-17.3-7.8-17.3-17.4 0-9.6 7.8-17.3 17.4-17.3 9.6 0 17.3 7.8 17.3 17.4 0 9.5-7.8 17.3-17.4 17.3z"/><path class="st9" d="M97.9 93.2c0-5.7 2.3-10.7 6-14.2-4.5 3.1-7.5 8.3-7.5 14.2 0 5.9 2.9 11.1 7.4 14.2-3.6-3.4-5.9-8.5-5.9-14.2z"/><path class="st11" d="M113.8 75.9c-.7 0-1.4.1-2.2.1 8.5 1.1 15.2 8.4 15.1 17.2 0 8.8-6.7 16.1-15.2 17.2.7.1 1.4.2 2.2.2 9.6 0 17.4-7.7 17.4-17.3 0-9.6-7.8-17.4-17.3-17.4z"/><path class="st7" d="M112.8 232.8c-2.1 0-3.8-1.6-3.9-3.6l-7-91.1c-.5-6.8 4.9-12.5 11.7-12.5 6.8 0 12.2 5.9 11.6 12.7l-8.6 90.9c0 2-1.7 3.6-3.8 3.6z"/><path class="st12" d="M113.7 125.6h-.7l-.2 107.2h.1c2 0 3.7-1.6 3.9-3.6l8.6-90.9c.5-6.9-4.9-12.7-11.7-12.7z"/><g><path class="st4" d="M112.8 235.2c-3.3 0-6.1-2.6-6.3-5.9l-7-91c-.3-3.9 1.1-7.8 3.8-10.6 2.7-2.8 6.4-4.5 10.3-4.5 3.9 0 7.7 1.7 10.4 4.6 2.7 2.9 4 6.8 3.7 10.7l-8.6 91c-.3 3.1-3 5.7-6.3 5.7zm.8-107.2c-2.6 0-5 1-6.8 3-1.8 1.9-2.7 4.4-2.5 7l7 91c.1.8.7 1.4 1.5 1.4s1.5-.6 1.5-1.4l8.6-91c.2-2.6-.6-5.1-2.4-7.1-1.8-1.9-4.2-2.9-6.9-2.9.1 0 0 0 0 0z"/></g><g><path class="st9" d="M106.7 83c-.5 0-.9-.2-1.3-.6-.5-.7-.4-1.7.3-2.2 1-.8 1.3-.9 2.4-1.3l.4-.1c.8-.3 1.7.2 2 1 .3.8-.2 1.7-1 2l-.4.1c-.8.3-.8.3-1.4.7-.3.3-.6.4-1 .4z"/></g><g><path class="st9" d="M100.6 93.6h-.1c-.9-.1-1.5-.8-1.5-1.7 0-.2.5-6 4-9.6.6-.6 1.6-.6 2.2 0 .6.6.6 1.6 0 2.2-2.7 2.8-3.1 7.6-3.1 7.7 0 .8-.7 1.4-1.5 1.4z"/></g><g class="st13"><path d="M124.5 17.1C136.2 43 146 76.5 145.9 117c-.1 31.4-7.2 55.4-14.7 78h6.5c11.4-22.9 18.3-45.6 18.4-77.9.1-43.7-12.4-77.5-31.6-100z"/></g><path class="st9" d="M75.3 120.1c.1-38.7 2.6-53 11.6-77.8-5.7 12.4-15.5 35.4-15.6 74.7-.1 32.3 6.7 55 18 78h.9c-7.2-21.7-15-44.8-14.9-74.9z"/></svg>
